<svg width="93" height="100" viewBox="0 0 93 100" fill="none" xmlns="http://www.w3.org/2000/svg">
<path d="M22.4306 85.671L36.4149 95.3794C42.6301 99.6942 45.9831 98.1852 46.8827 96.8913L50.6609 91.4569" stroke="#31582E" stroke-width="2.5"/>
<path d="M36.4149 95.3794L22.4306 85.671C16.2154 81.3561 16.4608 77.6897 17.3603 76.3958L21.1386 70.9614" stroke="#31582E" stroke-width="2.5"/>
<path d="M43.1537 72.4325L35.3846 67.039C29.1694 62.7241 29.4148 59.0576 30.3144 57.7637L34.0926 52.3294L35.1721 50.7767" stroke="#31582E" stroke-width="2.5"/>
<path d="M52.4765 78.9048C57.1379 82.1409 58.9371 79.5531 59.8367 78.2592L63.6149 72.8249L64.6944 71.2722" stroke="#31582E" stroke-width="2.5"/>
<path d="M42.8919 86.0634L28.9076 76.355C22.6924 72.0401 22.9378 68.3736 23.8373 67.0798L27.6156 61.6454" stroke="#31582E" stroke-width="2.5"/>
<path d="M59.2969 79.0356L64.6944 71.2722C65.1115 58.67 74.9436 51.5297 79.8075 49.5349L86.2845 40.2189C88.8753 36.4925 87.254 32.2721 85.9411 30.7721C80.8053 24.9045 82.8063 20.9221 85.1234 18.6939" stroke="#31582E" stroke-width="2.5"/>
<path d="M31.3939 56.2111L35.1721 50.7767C46.8455 45.9891 50.1114 34.2903 50.2851 29.0394L56.7622 19.7234C59.353 15.9969 63.8279 16.1877 65.7416 16.7488C73.0363 19.511 76.0731 16.2477 77.3543 13.3003" stroke="#31582E" stroke-width="2.5"/>
<path d="M79.8075 49.5349L61.1618 36.5903" stroke="#31582E" stroke-width="2"/>
<path d="M75.8005 12.2216L86.6772 19.7726L90.9952 13.5619L80.1185 6.01092L75.8005 12.2216Z" stroke="#31582E" stroke-width="2.5"/>
<path d="M3.4251 57.6066L32.4982 21.8253C27.2294 17.8037 34.1897 9.56445 34.1897 9.56445L37.4608 5.28522C38.5512 3.85881 41.4846 1.5805 41.4846 1.5805L42.9899 2.72952C41.0601 5.77384 37.2339 11.888 39.0404 13.2669L46.8728 5.69329L48.8083 7.1706L43.5564 16.7139C44.0582 17.0969 45.3889 17.435 46.6973 15.7233L52.3566 9.87898L53.8619 11.028C53.8619 11.028 53.0881 13.5995 51.3436 15.8818L48.0725 20.161C45.8918 23.0138 42.283 29.2939 37.0143 25.2724L10.1992 62.7772C7.47331 66.3432 4.87759 66.6206 4.10357 65.6534L2.16811 64.1761C1.73801 63.8478 0.517481 61.4104 3.4251 57.6066Z" stroke="#31582E" stroke-width="2.5"/>
</svg>
