<svg width="90" height="100" viewBox="0 0 90 100" fill="none" xmlns="http://www.w3.org/2000/svg">
<path d="M3.86879 57.5464L32.7657 22.0715C27.5289 18.0843 34.447 9.91559 34.447 9.91559L37.6983 5.673C38.7821 4.2588 41.6977 2 41.6977 2L43.1939 3.13918C41.2758 6.15744 37.4727 12.2193 39.2683 13.5863L47.0532 6.07758L48.977 7.54224L43.7569 17.0038C44.2557 17.3836 45.5783 17.7188 46.8788 16.0217L52.5038 10.2274L54 11.3666C54 11.3666 53.2309 13.9161 51.497 16.1789L48.2457 20.4214C46.0782 23.2498 42.4913 29.4761 37.2545 25.4891L10.6018 62.6727C7.89247 66.2082 5.31248 66.4832 4.54314 65.5243L2.61941 64.0597C2.19192 63.7342 0.978783 61.3177 3.86879 57.5464Z" fill="#BDD9B2" stroke="#31582E" stroke-width="2.5"/>
<path d="M63.9132 16.677C63.9132 16.677 71.2407 20.2306 74.8898 13.5839L73.2806 12.3929L76.8436 7.55196L87.7056 15.5909L84.1426 20.4318L82.5335 19.2409C77.2752 24.6966 83.2235 30.9684 83.2235 30.9684C84.9381 32.8605 85.465 36.3662 84.0858 39.0845L76.663 49.1698C65.8972 53.6653 60.5527 60.9267 60.9266 70.5508L55.5822 77.8122L41.9242 96.3693C39.8458 99.1932 35.229 97.0226 33.2176 95.5339L16.7234 83.3267C14.7119 81.838 11.2234 78.1345 13.3611 75.2299L20.1901 65.9514L27.0191 56.6729L32.3635 49.4114C41.2425 46.6353 46.5869 39.3739 48.0999 28.0305L55.5227 17.9451C57.0073 15.9281 61.2025 15.294 63.9132 16.677Z" fill="#BDD9B2"/>
<path d="M74.8898 13.5839C71.2407 20.2306 63.9132 16.677 63.9132 16.677C61.2025 15.294 57.0073 15.9281 55.5227 17.9451L48.0999 28.0305C46.5869 39.3739 41.2425 46.6353 32.3635 49.4114L27.0191 56.6729M74.8898 13.5839L73.2806 12.3929L76.8436 7.55196L87.7056 15.5909L84.1426 20.4318L82.5335 19.2409M74.8898 13.5839L82.5335 19.2409M27.0191 56.6729C24.4063 60.2229 30.0844 65.1731 30.0844 65.1731L38.935 71.7233M27.0191 56.6729L20.1901 65.9514M20.1901 65.9514C17.5773 69.5015 23.5524 74.0482 23.5524 74.0482L38.0351 84.7667M20.1901 65.9514L13.3611 75.2299C11.2234 78.1345 14.7119 81.838 16.7234 83.3267L33.2176 95.5339C35.229 97.0226 39.8458 99.1932 41.9242 96.3693L55.5822 77.8122M55.5822 77.8122L60.9266 70.5508C60.5527 60.9267 65.8972 53.6653 76.663 49.1698M55.5822 77.8122C52.91 81.443 48.1878 78.5713 48.1878 78.5713M76.663 49.1698L84.0858 39.0845C85.465 36.3662 84.9381 32.8605 83.2235 30.9684C83.2235 30.9684 77.2752 24.6966 82.5335 19.2409M76.663 49.1698L58.5596 35.7716" stroke="#31582E" stroke-width="3"/>
</svg>
