<svg width="70" height="80" viewBox="0 0 70 80" fill="none" xmlns="http://www.w3.org/2000/svg">
<path d="M68.1797 46.1768C67.434 49.5915 66.1294 53.3139 63.6641 56.5771C59.8812 61.5841 53.2494 65.6669 41.2334 65.667C40.8968 65.667 40.5824 65.836 40.3975 66.1172C40.2126 66.3983 40.1813 66.7536 40.3145 67.0625L44.7939 77.4443L21.0596 62.5635L44.7949 47.6816L40.3145 58.0654C40.1812 58.3744 40.2126 58.7296 40.3975 59.0107C40.5824 59.292 40.8968 59.4619 41.2334 59.4619C51.0376 59.4618 57.6575 56.5708 62.2422 52.8262C64.8102 50.7286 66.7168 48.3807 68.1797 46.1768ZM6.54688 33.9785C4.92471 38.3529 4.61431 42.1666 5.01953 45.4082C5.18145 46.7033 5.45748 47.8992 5.80371 48.9961C4.85982 47.7657 4.12474 46.5966 3.56152 45.5703C2.93867 44.4353 2.52587 43.4772 2.27051 42.8096C2.14287 42.4759 2.05426 42.2146 1.99902 42.041C1.98719 42.0038 1.97762 41.9704 1.96875 41.9414C1.9691 41.938 1.96935 41.9342 1.96973 41.9307C1.98188 41.8177 2.00763 41.6336 2.06348 41.3838C2.17524 40.884 2.40706 40.117 2.8877 39.1279C3.53781 37.7902 4.6485 36.035 6.54688 33.9785ZM64.1973 31.0049C65.1408 32.2348 65.8754 33.4037 66.4385 34.4297C67.0613 35.5647 67.4741 36.5228 67.7295 37.1904C67.8571 37.5241 67.9457 37.7854 68.001 37.959C68.0128 37.9962 68.0224 38.0296 68.0312 38.0586C68.0307 38.0636 68.0309 38.0689 68.0303 38.0742C68.0175 38.1912 67.9894 38.3822 67.9307 38.6406C67.8133 39.1568 67.5707 39.9479 67.0664 40.9668C66.4106 42.2918 65.3056 44.0095 63.4521 46.0176C65.0458 41.7187 65.3747 37.9621 65 34.7559C64.8413 33.3982 64.5579 32.1476 64.1973 31.0049ZM48.9395 17.4355L25.2041 32.3174L29.6855 21.9346C29.8188 21.6256 29.7874 21.2704 29.6025 20.9893C29.4176 20.708 29.1032 20.5381 28.7666 20.5381C18.9624 20.5382 12.3425 23.4292 7.75781 27.1738C5.18986 29.2713 3.28224 31.6184 1.81934 33.8223C2.56501 30.4077 3.8708 26.6858 6.33594 23.4229C10.1188 18.4159 16.7506 14.3331 28.7666 14.333C29.1032 14.333 29.4176 14.164 29.6025 13.8828C29.7874 13.6017 29.8187 13.2464 29.6855 12.9375L25.2051 2.55469L48.9395 17.4355Z" fill="#4C643B" stroke="#4C643B" stroke-width="2" stroke-miterlimit="16" stroke-linejoin="round"/>
</svg>
