<svg width="144" height="177" viewBox="0 0 144 177" fill="none" xmlns="http://www.w3.org/2000/svg">
<path d="M62.6249 148.577C56.7539 183.293 13.88 175.561 1.5 170.956C8.40772 159.697 36.5988 124.864 62.6249 148.577ZM62.6249 148.577C95.7939 136.767 80.2961 96.4094 73.6109 85.0172C63.7228 93.775 34.7528 127.064 62.6249 148.577ZM62.6249 148.577C29.8366 161.406 15.7446 120.193 13.3232 107.208C26.5315 107.338 69.5657 114.059 62.6249 148.577ZM129.548 1.5V11.5H125.048V17C129.548 26.5 138.981 31.9234 142.048 44V69.5C142.048 69.5 139.048 70.475 139.048 72C139.048 73.525 142.048 74.5 142.048 74.5V91C142.048 91 139.048 91.975 139.048 93.5C139.048 95.025 142.048 96 142.048 96V112.5C142.048 112.5 139.048 113.475 139.048 115C139.048 116.525 142.048 117.5 142.048 117.5V143C142.048 162.5 142.048 162.5 127.548 162.5L103.549 162.5C89.0486 162.5 89.0486 162.5 89.0486 143V117.5C89.0486 117.5 92.0486 116.525 92.0486 115C92.0486 113.475 89.0486 112.5 89.0486 112.5V96C89.0486 96 92.0486 95.025 92.0486 93.5C92.0486 91.975 89.0486 91 89.0486 91V74.5C89.0486 74.5 92.0486 73.525 92.0486 72C92.0486 70.475 89.0486 69.5 89.0486 69.5V44C92.1164 31.9235 101.549 26.5 106.049 17V11.5H101.549V1.5H129.548Z" stroke="#4C643B" stroke-width="3" stroke-linejoin="round"/>
</svg>
