<svg width="164" height="100" viewBox="0 0 164 100" fill="none" xmlns="http://www.w3.org/2000/svg">
<g clip-path="url(#clip0_0_1)">
<path d="M87.5004 85.1346V98H135.001L139.751 85.1346C154.001 85.5634 154.594 81.2748 158.751 72.269C161.126 67.1228 164.688 33.8334 158.751 33.8334H156.376C154.396 33.8334 150.438 34.6052 150.438 42.8392C150.438 51.073 145.688 60.0238 145.688 60.0238C142.103 64.1826 144.138 63.2632 136.188 63.2632H123.125H107.688C102.938 64.1208 94.6254 63.7778 94.6254 76.1286V85.1346H87.5004Z" fill="#BDD9B2"/>
<path d="M139.751 85.1346L135.001 98H87.5004V85.1346H94.6254M139.751 85.1346H94.6254M139.751 85.1346C154.001 85.5634 154.594 81.2748 158.751 72.269C161.126 67.1228 164.688 33.8334 158.751 33.8334H156.376C154.396 33.8334 150.438 34.6052 150.438 42.8392C150.438 51.073 145.688 60.0238 145.688 60.0238C142.103 64.1826 144.138 63.2632 136.188 63.2632H123.125H107.688C102.938 64.1208 94.6254 63.7778 94.6254 76.1286V85.1346" stroke="#31582E" stroke-width="3"/>
<path d="M87.5004 84.9048V98H135.001L139.751 84.9048H87.5004Z" fill="#8DAC81" stroke="#31582E" stroke-width="3"/>
<path d="M133.328 84.9048C142.606 82.4974 152.426 74.0662 152.426 74.0662L151.626 70.5C151.914 69.4758 148.063 67.9114 143.313 69.1904L138.321 70.57L133.328 71.9494C130.251 66.5714 117.188 66.5714 113.625 69.1904" stroke="#31582E" stroke-width="3"/>
<path d="M76.4996 85.1346V98H28.9994L24.2494 85.1346C9.99936 85.5634 9.40558 81.2748 5.24934 72.269C2.87434 67.1228 -0.688183 33.8334 5.24932 33.8334H7.62434C9.60352 33.8334 13.5619 34.6052 13.5619 42.8392C13.5619 51.073 18.3119 60.0238 18.3119 60.0238C21.8968 64.1826 19.8618 63.2632 27.812 63.2632H40.8746H56.312C61.0622 64.1208 69.3746 63.7778 69.3746 76.1286V85.1346H76.4996Z" fill="#BDD9B2"/>
<path d="M24.2494 85.1346L28.9994 98H76.4996V85.1346H69.3746M24.2494 85.1346H69.3746M24.2494 85.1346C9.99936 85.5634 9.40558 81.2748 5.24934 72.269C2.87434 67.1228 -0.688183 33.8334 5.24932 33.8334H7.62434C9.60352 33.8334 13.5619 34.6052 13.5619 42.8392C13.5619 51.073 18.3119 60.0238 18.3119 60.0238C21.8968 64.1826 19.8618 63.2632 27.812 63.2632H40.8746H56.312C61.0622 64.1208 69.3746 63.7778 69.3746 76.1286V85.1346" stroke="#31582E" stroke-width="3"/>
<path d="M76.4996 84.9048V98H28.9994L24.2494 84.9048H76.4996Z" fill="#8DAC81" stroke="#31582E" stroke-width="3"/>
<path d="M30.6716 84.917C21.3944 82.5096 11.5739 74.0784 11.5739 74.0784L12.3744 70.5122C12.0864 69.488 15.9369 67.9236 20.687 69.2026L25.6792 70.5822L30.6716 71.9616C33.7494 66.5836 46.812 66.5836 50.3746 69.2026" stroke="#31582E" stroke-width="3"/>
<path d="M92.983 14.161C75.0132 15.0449 66.17 15.0106 67.3252 37.582C73.0008 43.855 87.6172 53.3622 100.677 41.2076C108.839 33.611 114.865 19.9671 110.555 4.69379C109.705 7.55109 104.963 13.5718 92.983 14.161Z" fill="#BDD9B2"/>
<path d="M67.3252 37.582C66.17 15.0106 75.0132 15.0449 92.983 14.161C104.963 13.5718 109.705 7.55109 110.555 4.69379C114.865 19.9671 108.839 33.611 100.677 41.2076C87.6172 53.3622 73.0008 43.855 67.3252 37.582ZM67.3252 37.582L63.7726 36.297C50.2728 31.4134 47.6172 41.002 47.9768 46.4068M67.3252 37.582C73.918 22.0332 92.362 36.09 99.5978 24.9934" stroke="#31582E" stroke-width="3"/>
</g>
<defs>
<clipPath id="clip0_0_1">
<rect width="164" height="100" fill="white"/>
</clipPath>
</defs>
</svg>
