<svg width="127" height="100" viewBox="0 0 127 100" fill="none" xmlns="http://www.w3.org/2000/svg">
<g clip-path="url(#clip0_0_1)">
<path d="M1.44927 95.6522H91.3043C91.3043 62.029 68.901 53.6232 59.4203 53.6232H33.3333C22.7054 53.6232 1.44927 62.029 1.44927 95.6522Z" fill="#8DAC81" stroke="#31582E" stroke-width="3"/>
<path d="M47.1014 46.3768C59.5078 46.3768 69.5652 36.3194 69.5652 23.913C69.5652 11.5066 59.5078 1.44928 47.1014 1.44928C34.6951 1.44928 24.6377 11.5066 24.6377 23.913C24.6377 36.3194 34.6951 46.3768 47.1014 46.3768Z" fill="#BDD9B2" stroke="#31582E" stroke-width="3"/>
<path d="M63.7681 98.5507H124.638C124.638 76.5217 109.461 71.0145 103.039 71.0145H85.367C78.1674 71.0145 63.7681 76.5217 63.7681 98.5507Z" fill="#8DAC81" stroke="#31582E" stroke-width="3"/>
<path d="M110.145 50.7246C110.145 59.4741 102.739 66.6667 93.4783 66.6667C84.2173 66.6667 76.8116 59.4741 76.8116 50.7246C76.8116 41.9752 84.2173 34.7826 93.4783 34.7826C102.739 34.7826 110.145 41.9752 110.145 50.7246Z" fill="#BDD9B2" stroke="#31582E" stroke-width="3"/>
</g>
<defs>
<clipPath id="clip0_0_1">
<rect width="126.087" height="100" fill="white"/>
</clipPath>
</defs>
</svg>
