<svg width="99" height="71" viewBox="0 0 99 71" fill="none" xmlns="http://www.w3.org/2000/svg">
<path d="M38.9107 60.1995C73.8038 54.4084 68.7795 13.0584 66.1099 1.87063C54.194 7.57029 18.0323 31.8489 38.9107 60.1995Z" fill="#BDD9B2"/>
<path d="M38.9107 60.1995C49.3825 24.4058 21.3359 15.464 1.92107 11.9263C4.68565 33.8986 4.22907 48.1638 38.9107 60.1995Z" fill="#BDD9B2"/>
<path d="M97.0834 56.3012C85.9209 66.9531 68.3491 78.0635 38.9107 60.1995C60.8422 29.0601 88.0004 46.5502 97.0834 56.3012Z" fill="#BDD9B2"/>
<path d="M38.9107 60.1995C73.8038 54.4084 68.7795 13.0584 66.1099 1.87063C54.194 7.57029 18.0323 31.8489 38.9107 60.1995ZM38.9107 60.1995C49.3825 24.4058 21.3359 15.464 1.92107 11.9263C4.68565 33.8986 4.22907 48.1638 38.9107 60.1995ZM38.9107 60.1995C68.3491 78.0635 85.9209 66.9531 97.0834 56.3012C88.0004 46.5502 60.8422 29.0601 38.9107 60.1995Z" stroke="#31582E" stroke-width="2.58008"/>
</svg>
