<svg width="338" height="315" viewBox="0 0 338 315" fill="none" xmlns="http://www.w3.org/2000/svg">
<path d="M270.306 144.049C275.84 143.762 281.042 143.822 285.207 144.123C287.286 144.274 289.147 144.486 290.682 144.757C292.028 144.995 293.404 145.322 294.459 145.832L294.666 145.937L294.81 146.013L294.946 146.103C296.804 147.342 297.086 149.466 297.106 150.685C297.127 152.096 296.829 153.691 296.367 155.303C295.431 158.57 293.618 162.609 291.121 166.813C286.14 175.202 278.101 184.814 267.864 190.618C257.645 196.41 247.633 197.747 239.985 197.997C236.238 198.119 232.857 197.978 230.626 197.968C229.928 197.965 229.358 197.975 228.895 197.999C228.823 198.861 228.742 199.988 228.652 201.36C228.475 204.072 228.271 207.546 228.031 211.027C227.791 214.521 227.507 218.12 227.158 221.184C226.825 224.114 226.397 226.95 225.755 228.661C225.064 230.504 223.357 232.813 221.586 235.004C219.711 237.324 217.38 239.96 215.065 242.557C212.726 245.179 210.402 247.76 208.454 250.053C206.456 252.406 205.057 254.223 204.432 255.349L204.326 255.539L204.195 255.714C203.666 256.421 203.1 257.817 202.624 260.046C202.166 262.191 201.859 264.757 201.623 267.515C201.172 272.779 200.976 279.145 200.311 283.137C200.055 284.669 199.322 286.238 198.483 287.673C197.614 289.159 196.486 290.743 195.217 292.345C192.677 295.551 189.422 299.019 186.139 302.202C182.853 305.387 179.474 308.349 176.658 310.536C175.256 311.624 173.941 312.563 172.816 313.245C172.256 313.584 171.684 313.896 171.134 314.133C170.663 314.335 169.876 314.631 168.989 314.631C168.102 314.631 167.315 314.335 166.845 314.133C166.293 313.896 165.722 313.584 165.162 313.245C164.036 312.563 162.722 311.624 161.32 310.536C158.505 308.349 155.125 305.387 151.839 302.202C148.556 299.019 145.301 295.551 142.762 292.345C141.493 290.743 140.365 289.159 139.495 287.673C138.656 286.238 137.922 284.669 137.667 283.137C137.001 279.145 136.806 272.779 136.356 267.515C136.119 264.757 135.812 262.191 135.354 260.046C134.878 257.817 134.312 256.421 133.783 255.714L133.652 255.539L133.545 255.349C132.92 254.223 131.522 252.406 129.524 250.053C127.576 247.76 125.252 245.179 122.914 242.557C120.598 239.96 118.268 237.324 116.392 235.004C114.621 232.813 112.914 230.504 112.223 228.661C111.582 226.95 111.152 224.114 110.82 221.184C110.471 218.12 110.187 214.521 109.946 211.027C109.706 207.546 109.503 204.072 109.326 201.36C109.236 199.988 109.153 198.861 109.082 197.999C108.62 197.975 108.05 197.965 107.351 197.968C105.122 197.978 101.741 198.119 97.9924 197.997C90.3457 197.747 80.3325 196.41 70.1144 190.618C59.8253 184.785 52.2636 175.123 47.5415 166.752C45.1686 162.545 43.4532 158.56 42.4475 155.39C41.9483 153.815 41.5949 152.354 41.4458 151.117C41.3722 150.503 41.337 149.849 41.3952 149.215C41.4464 148.659 41.6026 147.706 42.2472 146.846L42.3816 146.677C43.0704 145.862 43.9806 145.485 44.4012 145.323C45.0016 145.092 45.682 144.916 46.3669 144.775C47.7509 144.489 49.5227 144.273 51.5301 144.124C55.5666 143.822 60.8629 143.763 66.5707 144.049C77.836 144.612 91.398 146.547 100.054 151.05C108.685 155.541 114.315 162.073 118.274 167.438C119.263 168.778 120.156 170.056 120.954 171.201C121.765 172.363 122.46 173.36 123.099 174.211C123.745 175.071 124.254 175.673 124.668 176.071C124.77 176.169 124.856 176.244 124.924 176.299C125.138 176.246 125.433 176.157 125.817 176.016C126.87 175.628 128.271 174.979 129.992 174.096C133.438 172.328 137.72 169.862 142.389 167.263C146.995 164.698 151.922 162.036 156.452 160.013C160.853 158.047 165.365 156.452 168.989 156.452C172.613 156.452 177.125 158.047 181.526 160.013C186.056 162.036 190.983 164.698 195.59 167.263C200.258 169.862 204.54 172.328 207.986 174.096C209.707 174.979 211.108 175.628 212.161 176.016C212.545 176.157 212.84 176.246 213.053 176.299C213.122 176.244 213.207 176.169 213.31 176.071C213.724 175.673 214.233 175.071 214.879 174.211C215.518 173.36 216.212 172.363 217.023 171.201C217.822 170.056 218.715 168.778 219.704 167.438C223.663 162.073 229.293 155.541 237.925 151.05C246.561 146.557 259.367 144.614 270.306 144.049ZM168.989 268.842C165.85 268.842 162.701 269.164 160.207 269.813C158.96 270.137 157.864 270.547 157.013 271.047C156.165 271.546 155.524 272.155 155.247 272.892L155.243 272.905L155.239 272.917C155.056 273.557 155.121 274.343 155.342 275.198C155.565 276.058 155.955 277.024 156.461 278.041C157.473 280.076 158.965 282.354 160.572 284.485C162.18 286.616 163.911 288.61 165.405 290.074C166.151 290.806 166.844 291.411 167.437 291.835C167.734 292.048 168.012 292.22 168.264 292.339C168.512 292.457 168.76 292.537 168.989 292.537C169.218 292.537 169.466 292.457 169.714 292.339C169.966 292.22 170.244 292.048 170.541 291.835C171.134 291.411 171.827 290.806 172.574 290.074C174.067 288.61 175.798 286.616 177.406 284.485C179.013 282.354 180.506 280.076 181.517 278.041C182.024 277.024 182.414 276.058 182.637 275.198C182.858 274.343 182.922 273.557 182.739 272.917L182.736 272.905L182.731 272.892C182.454 272.155 181.814 271.546 180.965 271.047C180.113 270.547 179.018 270.137 177.771 269.813C175.277 269.164 172.128 268.842 168.989 268.842ZM136.985 206.406C134.806 206.12 132.779 206.284 131.253 206.601C130.49 206.759 129.845 206.957 129.364 207.161C129.124 207.262 128.919 207.368 128.757 207.476C128.606 207.577 128.455 207.704 128.376 207.861C128.187 208.239 128.003 209.01 127.948 210.023C127.891 211.048 127.963 212.349 128.311 213.802C129.008 216.713 130.808 220.221 134.869 223.309C138.878 226.356 142.326 228.684 144.856 230.25C146.12 231.033 147.159 231.628 147.922 232.028C148.304 232.227 148.621 232.381 148.866 232.485C148.989 232.537 149.098 232.578 149.191 232.608C149.275 232.634 149.374 232.66 149.466 232.66C149.69 232.66 149.939 232.599 150.162 232.376C150.369 232.169 150.529 231.846 150.655 231.383C150.907 230.457 151.066 228.819 151.066 225.936C151.066 223.019 150.58 220.508 150.095 218.727C149.852 217.836 149.608 217.126 149.425 216.637C149.334 216.393 149.257 216.204 149.203 216.076C149.176 216.011 149.155 215.961 149.14 215.928C149.133 215.911 149.126 215.899 149.122 215.89C149.121 215.886 149.119 215.882 149.118 215.879L149.116 215.875C146.343 209.354 141.353 206.978 136.985 206.406ZM207.045 206.424C205.519 206.108 203.493 205.945 201.313 206.23C196.944 206.802 191.955 209.179 189.182 215.701L189.181 215.701L189.18 215.704C189.179 215.706 189.177 215.71 189.175 215.714C189.171 215.723 189.166 215.736 189.158 215.753C189.143 215.786 189.122 215.836 189.095 215.9C189.041 216.029 188.965 216.218 188.873 216.462C188.69 216.951 188.446 217.66 188.204 218.552C187.718 220.333 187.232 222.844 187.232 225.761C187.232 228.643 187.391 230.282 187.644 231.207C187.77 231.67 187.929 231.993 188.136 232.201C188.359 232.424 188.608 232.485 188.832 232.485C188.924 232.485 189.023 232.459 189.108 232.432C189.2 232.403 189.309 232.361 189.432 232.309C189.677 232.206 189.995 232.052 190.376 231.852C191.14 231.453 192.177 230.858 193.441 230.075C195.971 228.508 199.42 226.181 203.429 223.133C207.49 220.044 209.291 216.538 209.987 213.627C210.335 212.175 210.407 210.873 210.35 209.848C210.295 208.835 210.111 208.064 209.922 207.686C209.844 207.528 209.692 207.402 209.541 207.301C209.38 207.193 209.174 207.087 208.934 206.985C208.454 206.781 207.808 206.583 207.045 206.424ZM88.9029 150.373C89.2172 150.453 89.5289 150.537 89.8387 150.621L89.8278 150.618C89.5219 150.534 89.2133 150.453 88.9029 150.373ZM293.052 148.708C293.093 148.727 293.133 148.747 293.17 148.767C293.095 148.727 293.012 148.687 292.923 148.648L293.052 148.708ZM265.31 147.611C264.614 147.675 263.917 147.744 263.218 147.819L264.265 147.711C264.614 147.677 264.962 147.643 265.31 147.611Z" fill="url(#paint0_linear_2006_7)" fill-opacity="0.65"/>
<path d="M204.515 159.014L186.912 149.728L206.115 127.954C206.115 127.954 214.437 118.348 218.597 102.658C222.758 86.9685 214.117 76.7221 219.558 75.1211C224.999 73.5201 230.617 90.1558 231.4 101.378C232.042 110.578 224.999 123.471 226.279 124.432C227.559 125.393 252.523 113.545 259.565 107.461C266.606 101.378 270.251 97.2277 272.367 88.5695C274.482 79.9106 270.986 71.6245 265.646 59.7514C259.885 46.9434 250.603 39.899 252.843 37.0172C255.084 34.1354 267.886 42.7807 273.967 50.1453C280.048 57.51 283.569 69.0372 283.569 69.0372C283.569 69.0372 285.169 75.1211 286.449 75.1211C287.729 75.1211 289.01 70.9584 289.01 70.9584C289.01 70.9584 292.85 59.111 291.57 39.899C290.29 20.687 276.207 2.75568 282.288 0.194088C288.369 -2.3675 301.172 21.0072 303.412 36.0566C305.652 51.106 302.452 74.4807 303.412 75.1211C304.372 75.7615 312.374 68.3968 312.374 68.3968C330.937 52.0666 329.977 29.0121 335.738 29.6525C341.499 30.2929 335.738 70.318 319.415 81.8453C319.415 81.8453 304.183 92.1308 293.17 100.097C281.257 108.713 278.416 114.37 265.966 122.191C252.758 130.487 237.89 133.262 224.999 142.043C216.413 147.89 204.515 159.014 204.515 159.014Z" fill="url(#paint1_linear_2006_7)" fill-opacity="0.65"/>
<path d="M133.398 159.208L151.001 149.922L131.798 128.148C131.798 128.148 123.476 118.542 119.316 102.852C115.155 87.1625 123.797 76.9161 118.356 75.3151C112.915 73.7141 107.296 90.3498 106.514 101.572C105.872 110.772 112.915 123.665 111.634 124.626C110.354 125.587 85.39 113.739 78.3487 107.655C71.3075 101.572 67.6615 97.4224 65.5465 88.7635C63.431 80.1053 66.9273 71.8185 72.2677 59.9455C78.0287 47.1375 87.3103 40.0931 85.0699 37.2113C82.8295 34.3296 70.0273 42.9748 63.9463 50.3395C57.8652 57.7041 54.3446 69.2313 54.3446 69.2313C54.3446 69.2313 52.7443 75.3151 51.4641 75.3151C50.1839 75.3151 48.9037 71.1525 48.9037 71.1525C48.9037 71.1525 45.063 59.3051 46.3432 40.0931C47.6235 20.8811 61.7059 2.9498 55.6248 0.38821C49.5438 -2.17338 36.7416 21.2013 34.5012 36.2507C32.2608 51.3001 35.4614 74.6747 34.5012 75.3151C33.5411 75.9555 25.5397 68.5909 25.5397 68.5909C6.97649 52.2607 7.93666 29.2063 2.17567 29.8467C-3.58545 30.4871 2.17567 70.5121 18.4985 82.0393C18.4985 82.0393 33.7305 92.3254 44.743 100.291C56.6561 108.908 59.4975 114.565 71.9476 122.385C85.1557 130.681 100.023 133.456 112.915 142.237C121.5 148.085 133.398 159.208 133.398 159.208Z" fill="url(#paint2_linear_2006_7)" fill-opacity="0.65"/>
<path d="M187.552 132.757L150.426 93.6927L168.989 74.4807L187.552 93.6927L150.426 132.757" stroke="url(#paint3_linear_2006_7)" stroke-opacity="0.65" stroke-width="16" stroke-linecap="round" stroke-linejoin="round"/>
<defs>
<linearGradient id="paint0_linear_2006_7" x1="168.956" y1="2.32011e-05" x2="168.956" y2="314.631" gradientUnits="userSpaceOnUse">
<stop stop-color="white"/>
<stop offset="1" stop-color="white" stop-opacity="0.3"/>
</linearGradient>
<linearGradient id="paint1_linear_2006_7" x1="168.956" y1="-4.20007e-07" x2="168.956" y2="314.631" gradientUnits="userSpaceOnUse">
<stop stop-color="white"/>
<stop offset="1" stop-color="white" stop-opacity="0.3"/>
</linearGradient>
<linearGradient id="paint2_linear_2006_7" x1="168.956" y1="-1.67135e-06" x2="168.956" y2="314.631" gradientUnits="userSpaceOnUse">
<stop stop-color="white"/>
<stop offset="1" stop-color="white" stop-opacity="0.3"/>
</linearGradient>
<linearGradient id="paint3_linear_2006_7" x1="168.989" y1="74.4807" x2="168.989" y2="132.757" gradientUnits="userSpaceOnUse">
<stop stop-color="white"/>
<stop offset="1" stop-color="white" stop-opacity="0.3"/>
</linearGradient>
</defs>
</svg>
