<svg width="466" height="447" viewBox="0 0 466 447" fill="none" xmlns="http://www.w3.org/2000/svg">
<path d="M336.877 144.495C342.411 144.209 347.614 144.268 351.778 144.569C353.857 144.72 355.718 144.932 357.254 145.203C358.599 145.442 359.975 145.769 361.031 146.279L361.238 146.383L361.382 146.459L361.517 146.549C363.376 147.789 363.658 149.912 363.677 151.131C363.699 152.542 363.401 154.137 362.938 155.749C362.003 159.017 360.189 163.055 357.693 167.259C352.711 175.648 344.672 185.26 334.435 191.064C324.217 196.857 314.204 198.193 306.557 198.443C302.809 198.565 299.428 198.424 297.198 198.414C296.5 198.412 295.929 198.421 295.466 198.445C295.395 199.307 295.313 200.435 295.224 201.806C295.046 204.518 294.843 207.993 294.603 211.473C294.362 214.967 294.078 218.566 293.73 221.631C293.397 224.56 292.968 227.396 292.327 229.107C291.635 230.95 289.929 233.259 288.158 235.45C286.282 237.77 283.951 240.407 281.636 243.003C279.297 245.625 276.974 248.206 275.026 250.499C273.027 252.852 271.629 254.669 271.003 255.795L270.898 255.986L270.766 256.16C270.237 256.867 269.672 258.263 269.196 260.492C268.737 262.637 268.431 265.203 268.195 267.961C267.743 273.225 267.547 279.591 266.882 283.584C266.627 285.116 265.894 286.685 265.054 288.119C264.186 289.605 263.057 291.189 261.788 292.791C259.248 295.997 255.993 299.465 252.71 302.648C249.425 305.833 246.045 308.795 243.23 310.982C241.828 312.071 240.513 313.009 239.388 313.691C238.828 314.03 238.256 314.342 237.705 314.579C237.234 314.781 236.448 315.077 235.56 315.077C234.673 315.077 233.887 314.781 233.416 314.579C232.865 314.342 232.294 314.03 231.734 313.691C230.608 313.009 229.293 312.071 227.892 310.982C225.076 308.795 221.697 305.833 218.411 302.648C215.127 299.465 211.873 295.997 209.333 292.791C208.065 291.189 206.936 289.605 206.067 288.119C205.228 286.685 204.493 285.116 204.239 283.584C203.573 279.591 203.378 273.225 202.927 267.961C202.691 265.203 202.384 262.637 201.925 260.492C201.45 258.263 200.884 256.867 200.354 256.16L200.223 255.986L200.117 255.795C199.492 254.669 198.094 252.852 196.095 250.499C194.147 248.206 191.824 245.625 189.485 243.003C187.169 240.407 184.839 237.77 182.963 235.45C181.192 233.259 179.486 230.95 178.795 229.107C178.153 227.396 177.724 224.56 177.391 221.631C177.043 218.566 176.759 214.967 176.518 211.473C176.278 207.993 176.074 204.518 175.897 201.806C175.807 200.435 175.725 199.307 175.653 198.445C175.191 198.421 174.621 198.412 173.923 198.414C171.693 198.424 168.312 198.565 164.564 198.443C156.917 198.193 146.904 196.857 136.686 191.064C126.397 185.231 118.835 175.569 114.113 167.198C111.74 162.991 110.025 159.006 109.019 155.836C108.52 154.262 108.166 152.8 108.017 151.564C107.944 150.95 107.908 150.295 107.967 149.661C108.018 149.105 108.174 148.152 108.819 147.292L108.953 147.123C109.642 146.308 110.552 145.931 110.973 145.769C111.573 145.538 112.253 145.362 112.938 145.221C114.322 144.936 116.094 144.72 118.102 144.57C122.138 144.268 127.434 144.209 133.142 144.495C144.407 145.059 157.97 146.993 166.625 151.496C175.257 155.987 180.886 162.52 184.846 167.884C185.834 169.224 186.727 170.502 187.526 171.647C188.336 172.809 189.031 173.806 189.671 174.657C190.317 175.517 190.825 176.119 191.239 176.517C191.342 176.616 191.427 176.69 191.495 176.746C191.709 176.692 192.004 176.603 192.389 176.462C193.442 176.074 194.842 175.426 196.563 174.543C200.009 172.774 204.292 170.308 208.96 167.71C213.567 165.145 218.494 162.482 223.023 160.459C227.424 158.493 231.936 156.898 235.56 156.898C239.185 156.898 243.697 158.493 248.097 160.459C252.627 162.482 257.555 165.144 262.161 167.71C266.829 170.308 271.111 172.774 274.557 174.543C276.278 175.426 277.679 176.074 278.733 176.462C279.117 176.603 279.411 176.692 279.625 176.746C279.693 176.69 279.779 176.616 279.881 176.517C280.295 176.119 280.805 175.517 281.451 174.657C282.089 173.806 282.784 172.809 283.594 171.647C284.393 170.502 285.286 169.224 286.275 167.884C290.235 162.52 295.865 155.987 304.496 151.496C313.132 147.003 325.939 145.06 336.877 144.495ZM235.56 269.289C232.422 269.289 229.273 269.61 226.778 270.26C225.532 270.584 224.436 270.993 223.584 271.494C222.736 271.992 222.096 272.601 221.819 273.339L221.814 273.351L221.811 273.363C221.628 274.003 221.692 274.789 221.913 275.644C222.136 276.505 222.527 277.47 223.032 278.487C224.044 280.522 225.536 282.801 227.144 284.931C228.752 287.062 230.482 289.057 231.976 290.521C232.722 291.252 233.415 291.857 234.009 292.282C234.306 292.494 234.584 292.666 234.836 292.786C235.084 292.903 235.331 292.984 235.56 292.984C235.79 292.984 236.038 292.903 236.285 292.786C236.537 292.666 236.816 292.494 237.112 292.282C237.705 291.857 238.399 291.252 239.145 290.521C240.638 289.057 242.37 287.062 243.978 284.931C245.585 282.801 247.077 280.522 248.089 278.487C248.595 277.47 248.985 276.505 249.208 275.644C249.429 274.789 249.493 274.003 249.311 273.363L249.307 273.351L249.302 273.339C249.026 272.601 248.385 271.992 247.537 271.494C246.685 270.993 245.589 270.584 244.343 270.26C241.848 269.61 238.7 269.289 235.56 269.289ZM203.556 206.852C201.377 206.567 199.351 206.73 197.824 207.047C197.061 207.205 196.416 207.403 195.936 207.607C195.696 207.708 195.49 207.815 195.329 207.922C195.177 208.023 195.026 208.15 194.947 208.307C194.759 208.685 194.575 209.457 194.519 210.469C194.463 211.494 194.534 212.796 194.882 214.249C195.579 217.159 197.379 220.667 201.441 223.755C205.449 226.803 208.898 229.13 211.428 230.696C212.692 231.479 213.73 232.074 214.494 232.475C214.875 232.674 215.192 232.827 215.438 232.931C215.56 232.983 215.67 233.025 215.762 233.054C215.846 233.08 215.946 233.106 216.037 233.106C216.261 233.106 216.51 233.045 216.734 232.822C216.941 232.615 217.1 232.292 217.226 231.83C217.479 230.904 217.637 229.265 217.637 226.382C217.637 223.465 217.152 220.954 216.666 219.173C216.423 218.282 216.18 217.572 215.997 217.083C215.905 216.839 215.828 216.65 215.775 216.522C215.748 216.458 215.727 216.408 215.711 216.374C215.704 216.358 215.698 216.345 215.694 216.336C215.692 216.332 215.691 216.328 215.689 216.326L215.688 216.322C212.914 209.801 207.925 207.424 203.556 206.852ZM273.617 206.871C272.091 206.554 270.064 206.392 267.885 206.677C263.516 207.249 258.527 209.626 255.753 216.147L255.753 216.148L255.751 216.15C255.75 216.153 255.748 216.156 255.746 216.16C255.742 216.169 255.737 216.182 255.73 216.199C255.715 216.233 255.694 216.283 255.666 216.347C255.613 216.475 255.536 216.664 255.445 216.908C255.262 217.397 255.018 218.107 254.775 218.998C254.289 220.78 253.804 223.29 253.804 226.207C253.804 229.089 253.963 230.728 254.215 231.654C254.341 232.117 254.5 232.439 254.707 232.647C254.931 232.87 255.18 232.931 255.404 232.931C255.495 232.931 255.595 232.905 255.679 232.879C255.772 232.849 255.881 232.808 256.004 232.756C256.249 232.652 256.566 232.498 256.947 232.298C257.711 231.899 258.748 231.305 260.013 230.521C262.542 228.954 265.992 226.627 270 223.579C274.062 220.491 275.862 216.984 276.559 214.073C276.906 212.621 276.979 211.319 276.922 210.294C276.866 209.281 276.682 208.51 276.494 208.132C276.415 207.975 276.264 207.848 276.113 207.747C275.951 207.639 275.745 207.533 275.506 207.431C275.025 207.227 274.38 207.029 273.617 206.871ZM155.474 150.819C155.789 150.9 156.1 150.983 156.41 151.067L156.399 151.064C156.093 150.98 155.785 150.899 155.474 150.819ZM359.623 149.154C359.664 149.174 359.704 149.194 359.742 149.213C359.666 149.173 359.584 149.133 359.494 149.094L359.623 149.154ZM331.882 148.058C331.186 148.121 330.488 148.19 329.789 148.265L330.836 148.157C331.185 148.123 331.533 148.089 331.882 148.058Z" fill="url(#paint0_linear_2002_36)" fill-opacity="0.65"/>
<path d="M271.087 159.46L253.484 150.174L272.687 128.4C272.687 128.4 281.008 118.794 285.169 103.105C289.33 87.4148 280.688 77.1683 286.129 75.5673C291.57 73.9663 297.188 90.602 297.971 101.824C298.613 111.024 291.57 123.918 292.85 124.878C294.13 125.839 319.095 113.991 326.136 107.908C333.177 101.824 336.823 97.674 338.938 89.0158C341.054 80.3569 337.557 72.0707 332.217 60.1977C326.456 47.3897 317.174 40.3453 319.415 37.4635C321.655 34.5817 334.457 43.227 340.538 50.5916C346.619 57.9563 350.14 69.4835 350.14 69.4835C350.14 69.4835 351.74 75.5673 353.021 75.5673C354.301 75.5673 355.581 71.4047 355.581 71.4047C355.581 71.4047 359.422 59.5572 358.141 40.3453C356.861 21.1332 342.779 3.20196 348.86 0.640365C354.941 -1.92122 367.743 21.4534 369.984 36.5029C372.224 51.5523 369.023 74.9269 369.984 75.5673C370.944 76.2077 378.945 68.8431 378.945 68.8431C397.508 52.5128 396.548 29.4584 402.309 30.0988C408.07 30.7392 402.309 70.7643 385.986 82.2915C385.986 82.2915 370.754 92.577 359.742 100.543C347.829 109.16 344.987 114.816 332.537 122.637C319.329 130.933 304.461 133.708 291.57 142.489C282.985 148.337 271.087 159.46 271.087 159.46Z" fill="url(#paint1_linear_2002_36)" fill-opacity="0.65"/>
<path d="M199.97 159.654L217.573 150.368L198.369 128.594C198.369 128.594 190.048 118.988 185.887 103.299C181.727 87.6088 190.368 77.3624 184.927 75.7614C179.486 74.1604 173.868 90.7961 173.085 102.018C172.443 111.218 179.486 124.112 178.206 125.072C176.926 126.033 151.961 114.185 144.92 108.102C137.879 102.018 134.233 97.8687 132.118 89.2098C130.002 80.5516 133.499 72.2648 138.839 60.3918C144.6 47.5838 153.882 40.5394 151.641 37.6576C149.401 34.7758 136.599 43.4211 130.518 50.7858C124.437 58.1504 120.916 69.6776 120.916 69.6776C120.916 69.6776 119.316 75.7614 118.036 75.7614C116.755 75.7614 115.475 71.5988 115.475 71.5988C115.475 71.5988 111.635 59.7514 112.915 40.5394C114.195 21.3273 128.277 3.39608 122.196 0.834488C116.115 -1.7271 103.313 21.6475 101.073 36.697C98.8323 51.7464 102.033 75.121 101.073 75.7614C100.113 76.4018 92.1112 69.0372 92.1112 69.0372C73.548 52.707 74.5081 29.6526 68.7471 30.293C62.986 30.9334 68.7471 70.9584 85.0699 82.4856C85.0699 82.4856 100.302 92.7717 111.314 100.737C123.228 109.354 126.069 115.011 138.519 122.831C151.727 131.127 166.594 133.902 179.486 142.683C188.071 148.531 199.97 159.654 199.97 159.654Z" fill="url(#paint2_linear_2002_36)" fill-opacity="0.65"/>
<path d="M254.124 133.203L216.997 94.139L235.56 74.9269L254.124 94.139L216.997 133.203" stroke="url(#paint3_linear_2002_36)" stroke-opacity="0.65" stroke-width="16" stroke-linecap="round" stroke-linejoin="round"/>
<defs>
<linearGradient id="paint0_linear_2002_36" x1="235.528" y1="0.446297" x2="235.528" y2="315.077" gradientUnits="userSpaceOnUse">
<stop stop-color="white"/>
<stop offset="1" stop-color="white" stop-opacity="0.3"/>
</linearGradient>
<linearGradient id="paint1_linear_2002_36" x1="235.528" y1="0.446277" x2="235.528" y2="315.077" gradientUnits="userSpaceOnUse">
<stop stop-color="white"/>
<stop offset="1" stop-color="white" stop-opacity="0.3"/>
</linearGradient>
<linearGradient id="paint2_linear_2002_36" x1="235.528" y1="0.446276" x2="235.528" y2="315.077" gradientUnits="userSpaceOnUse">
<stop stop-color="white"/>
<stop offset="1" stop-color="white" stop-opacity="0.3"/>
</linearGradient>
<linearGradient id="paint3_linear_2002_36" x1="235.56" y1="74.9269" x2="235.56" y2="133.203" gradientUnits="userSpaceOnUse">
<stop stop-color="white"/>
<stop offset="1" stop-color="white" stop-opacity="0.3"/>
</linearGradient>
</defs>
</svg>
