<svg width="157" height="99" viewBox="0 0 157 99" fill="none" xmlns="http://www.w3.org/2000/svg">
<path d="M59.8645 90.4774C59.8645 93.7176 56.8191 96.6323 52.6839 96.6323C48.5486 96.6323 45.5032 93.7176 45.5032 90.4774C45.5032 87.2372 48.5486 84.3226 52.6839 84.3226C56.8191 84.3226 59.8645 87.2372 59.8645 90.4774Z" stroke="white" stroke-width="2.73548"/>
<path d="M20.8839 96.6323H11.9935V91.5032M20.8839 84.6645H11.9935V91.5032M20.2 89.7935C17.4645 92.1871 15.071 88.0839 11.9935 91.5032" stroke="white" stroke-width="2.73548"/>
<path d="M27.7226 83.0988V90.5494M27.7226 98V90.5494M27.7226 90.5494C33.3351 89.7216 37.9807 86.5182 37.9807 83.0988M27.7226 90.5494C27.7226 90.5494 30.3638 90.1355 34.3255 90.5494C38.2872 90.9633 35.929 96.6323 36.9549 96.6323C37.9807 96.6323 39.3484 96.6323 39.3484 96.6323" stroke="white" stroke-width="2.73548"/>
<path d="M66.0194 96.6323C74.9097 92.871 73.8839 86.3742 73.8839 78.5097M73.8839 78.5097H83.1161V96.6323M73.8839 78.5097C73.8839 78.5097 69.4387 78.1677 69.4387 76.1161" stroke="white" stroke-width="2.73548"/>
<path d="M103.29 97.0264L101.43 93.6161M93.7161 83.007C96.1097 82.6651 96.2206 84.0652 96.949 85.4006M96.949 85.4006C96.1097 88.1361 94.8891 90.5296 93.0323 93.6161M96.949 85.4006L101.43 93.6161M89.9548 97.0264C91.3226 96.0006 92.4206 94.6328 93.0323 93.6161M93.0323 93.6161H101.43" stroke="white" stroke-width="2.73548"/>
<path d="M110.471 82.9548V90.4774M110.471 98V90.4774M110.471 90.4774H120.045V82.9548V98" stroke="white" stroke-width="2.73548"/>
<path d="M128.252 82.9548V88.9918M128.252 88.9918V96.5379C128.252 96.5379 134.087 96.9152 137.005 96.1606C139.923 95.406 139.923 90.1237 137.005 89.3691C134.087 88.6145 128.252 88.9918 128.252 88.9918Z" stroke="white" stroke-width="2.73548"/>
<path d="M90.0845 63.8518L92.7049 60.1373C93.744 55.8712 89.6225 54.423 87.3358 51.5745C85.8345 49.7044 85.7393 46.6953 86.2555 43.7679L86.5784 47.51C86.9151 49.7805 88.2187 50.7474 88.2187 50.7474C88.2187 50.7474 89.1026 51.4031 90.1713 52.2131C91.222 53.0093 92.4512 53.9548 93.1947 54.5731C94.6946 55.8202 94.919 57.3339 95.1015 59.0858C95.2839 60.8377 112.551 60.4428 116.545 58.6903C120.539 56.9378 123.286 52.5085 123.286 52.5085C126.977 47.9474 128.821 43.4117 128.821 43.4117C128.821 43.4117 133.753 30.7689 133.864 23.1725C133.975 15.576 134.605 12.0019 130.539 4.40606C126.474 -3.18983 138.417 12.6742 138.417 12.6742C141.221 14.8882 143.491 10.3749 143.491 10.3749C143.491 10.3749 144.849 5.45523 144.092 1.39081C143.335 -2.6736 148.943 10.1078 153.946 10.9901C158.95 11.8724 151.424 16.9331 151.523 19.1615C151.523 19.1615 147.039 30.6549 147.334 33.1637C147.334 33.1637 153.333 33.9758 148.231 35.0417C143.13 36.1076 137.567 48.1477 137.567 48.1477L132.844 51.2457L126.93 54.1338C126.93 54.1338 121.703 60.0912 118.186 61.9278C114.668 63.7643 101.924 62.1919 98.3676 62.8555C94.8111 63.5192 96.933 65.8968 96.0137 67.8454C94.4856 65.3649 93.0278 63.8794 90.0845 63.8518Z" fill="white" fill-opacity="0.3" stroke="white" stroke-width="1.02581"/>
<path d="M66.2593 63.8518L63.6389 60.1373C62.5999 55.8712 66.7214 54.423 69.0081 51.5745C70.5093 49.7044 70.6046 46.6953 70.0884 43.7679L69.7655 47.51C69.4288 49.7805 68.1252 50.7474 68.1252 50.7474C68.1252 50.7474 67.2413 51.4031 66.1725 52.2131C65.1219 53.0093 63.8927 53.9548 63.1492 54.5731C61.6493 55.8202 61.4249 57.3339 61.2424 59.0858C61.06 60.8377 43.7928 60.4428 39.7986 58.6903C35.8044 56.9378 33.058 52.5085 33.058 52.5085C29.3673 47.9474 27.5231 43.4117 27.5231 43.4117C27.5231 43.4117 22.5914 30.7689 22.4803 23.1725C22.3692 15.576 21.739 12.0019 25.8046 4.40606C29.8702 -3.18983 17.9267 12.6742 17.9267 12.6742C15.1233 14.8882 12.8534 10.3749 12.8534 10.3749C12.8534 10.3749 11.4945 5.45523 12.252 1.39081C13.0094 -2.6736 7.40134 10.1078 2.39765 10.9901C-2.60603 11.8724 4.91963 16.9331 4.82121 19.1615C4.82121 19.1615 9.3046 30.6549 9.00993 33.1637C9.00993 33.1637 3.01114 33.9758 8.11267 35.0417C13.2142 36.1076 18.7767 48.1477 18.7767 48.1477L23.4995 51.2457L29.4137 54.1338C29.4137 54.1338 34.6407 60.0912 38.1583 61.9278C41.676 63.7643 54.4197 62.1919 57.9763 62.8555C61.5328 63.5192 59.4109 65.8968 60.3302 67.8454C61.8582 65.3649 63.3161 63.8794 66.2593 63.8518Z" fill="white" fill-opacity="0.3" stroke="white" stroke-width="1.02581"/>
</svg>
