<svg width="154" height="56" viewBox="0 0 154 56" fill="none" xmlns="http://www.w3.org/2000/svg">
<path d="M97 7H103.217L113.957 28L115.417 7H123L121.304 45H113.957L105.667 25V45H97V7Z" fill="white" stroke="#C7C7C7" stroke-width="2"/>
<g clip-path="url(#clip0_0_1)">
<path d="M57.8293 14H51V44.7097H61.2439C68.0732 44.7097 69.2805 42.7419 69.7805 40.7725V38.0165V35.2605C69.7805 28.9611 65.2276 28.837 62.9512 29.5623C65.6394 28.4991 68.0732 26.4223 68.0732 22.6617V19.512C68.0732 17.6747 66.0244 14 57.8293 14Z" fill="white"/>
<path d="M57.8293 30.536C59.2055 30.536 61.1363 30.2802 62.9512 29.5623M62.9512 29.5623C65.6394 28.4991 68.0732 26.4223 68.0732 22.6617V19.512C68.0732 17.6747 66.0244 14 57.8293 14H51V44.7097H61.2439C68.0732 44.7097 69.2805 42.7419 69.7805 40.7725V38.0165V35.2605C69.7805 28.9611 65.2276 28.837 62.9512 29.5623Z" stroke="#C7C7C7" stroke-width="2"/>
<path d="M54.1707 29.3548C54.1707 37.3658 48.2327 43.7097 41.0854 43.7097C33.938 43.7097 28 37.3658 28 29.3548C28 21.3439 33.938 15 41.0854 15C48.2327 15 54.1707 21.3439 54.1707 29.3548Z" fill="white" stroke="#C7C7C7" stroke-width="2"/>
<circle cx="90" cy="18" r="4" fill="white" stroke="#C7C7C7" stroke-width="2"/>
<path d="M70 15H79.6429V39.641H85V42.8205C85 43.8803 84.1429 46 80.7143 46H70V15Z" fill="white" stroke="#C7C7C7" stroke-width="2"/>
<path d="M149.923 36.7895C148.487 35.7368 125.513 35.7368 124.077 36.7895C122.641 37.8421 122.641 44.1579 124.077 45.2105C125.513 46.2632 148.487 46.2632 149.923 45.2105C151.359 44.1579 151.359 37.8421 149.923 36.7895Z" fill="white" stroke="#C7C7C7" stroke-width="2"/>
<path d="M8.45121 13.5484C15.0244 10.8387 28.3585 10.8387 29.1098 21.6774V25.2903H31.9268C33.8049 29.8065 31.9268 37.0323 29.1098 41.5484C26.2927 46.0645 23.6634 46.0645 13.1463 46.0645C8.76423 46.0645 2.81707 39.7419 1.87804 36.129C0.939018 32.5161 0.939018 26.1935 0.939018 26.1935C0.939018 26.1935 0.939018 19.871 8.45121 13.5484Z" fill="white"/>
<path d="M15.0244 38.8387C10.3293 37.0323 9.39024 29.8065 14.0854 25.2903H29.1097M29.1097 25.2903H31.9268C33.8049 29.8065 31.9268 37.0323 29.1097 41.5484C26.2927 46.0645 23.6634 46.0645 13.1463 46.0645C8.76423 46.0645 2.81707 39.7419 1.87804 36.129C0.93902 32.5161 0.939018 26.1935 0.939018 26.1935C0.939018 26.1935 0.939018 19.871 8.45121 13.5484C15.0244 10.8387 28.3585 10.8387 29.1097 21.6774V25.2903Z" stroke="#C7C7C7" stroke-width="2"/>
<path d="M94 25H86V46H94V25Z" fill="white" stroke="#C7C7C7" stroke-width="2"/>
</g>
<defs>
<clipPath id="clip0_0_1">
<rect width="154" height="56" fill="white"/>
</clipPath>
</defs>
</svg>
