<svg width="73" height="76" viewBox="0 0 73 76" fill="none" xmlns="http://www.w3.org/2000/svg">
<path d="M54 47.22C53.4281 48.8067 52.1471 52.184 51.598 53L48.3382 52.66L49.7108 50.62L51.0833 46.54L51.598 41.95L51.0833 34.13L50.3971 38.55L49.0245 43.65L47.3088 46.54L43.7059 49.6L39.2451 52.66H34.7843L31.6961 51.3L27.4069 48.07L24.3186 44.33L23.4608 40.76L22.4314 36.51L21.5735 34.13V40.08V44.33L22.4314 49.09L24.3186 53L21.5735 52.66L19.6863 49.09L19 45.35V41.95V33.45V27.5L19.6863 23.08L20.3725 20.19L21.2304 16.79L22.9461 14.75L25.1765 12.71L27.9216 11.69L27.4069 9.65V7.95L28.4363 5.57L30.4951 3.53L34.098 2H37.5294H39.9314L43.7059 3.53L45.5931 5.57L46.6225 8.97L45.5931 11.69L48.3382 12.71L50.3971 14.75L52.2843 17.47L53.1422 20.7L54 25.29V47.22Z" fill="#BDD9B2" stroke="#BDD9B2"/>
<path d="M10 72H63L61.9905 66.7959L59.9714 62.9796L57.4476 59.8571L54.0825 56.7347L50.381 55L48.5302 57.602L44.9968 59.8571L40.6222 61.2449L36.5841 61.9388L31.3683 60.7245L27.1619 59.3367L24.6381 57.602L22.7873 55L20.6 55.8673L17.0667 58.2959L13.5333 61.9388L11.1778 66.7959L10 72Z" fill="#8DAC81" stroke="#8DAC81"/>
<path d="M51.598 40.2924L51.0833 34.1927V27.0764L50.2255 26.5681L46.7941 24.196L45.0784 22.1628L44.2206 20.9767L43.7059 22.1628L41.6471 23.6877L35.9853 25.5515L28.2647 26.5681L21.5735 27.0764V46.9003L22.7745 49.9502L24.4902 53H21.5735L19.6863 49.9502L19 46.2226V27.7542L19.6863 22.8405L20.7157 18.2658L22.2598 15.3854L25.0049 13.1827L28.0931 11.4884L27.0637 9.45515L27.5784 7.25249L28.7794 5.3887L30.6667 3.69435L33.7549 2.50831L37.3578 2L40.4461 2.50831L43.5343 3.69435L45.5931 6.06645L46.451 9.45515L45.5931 11.4884L48.5098 13.1827L50.2255 14.7076L51.598 17.2492L52.9706 19.9601L54 27.0764V46.9003L52.9706 49.9502L51.0833 53H48.5098L50.2255 49.9502L51.598 46.2226V40.2924Z" fill="#8DAC81" stroke="#8DAC81" stroke-width="2"/>
<path d="M50.2884 54.8132C56.0791 57.1781 62.3783 62.2257 62.9811 71.666H10.0189C10.6217 62.2257 16.9209 57.1781 22.7116 54.8132C25.1203 53.8295 27.441 53.31 29.2271 53.1316V49.1803C31.0791 50.5919 33.009 51.6259 34.2534 52.1297H38.7571C39.9991 51.6268 41.9241 50.5958 43.7729 49.1882V53.1316C45.559 53.31 47.8797 53.8295 50.2884 54.8132Z" fill="#BDD9B2"/>
<path d="M63 72C62.3312 58.3747 49.9033 53.7438 43.7729 53.1316V49.1241M10 72C10.6688 58.3747 23.0967 53.7438 29.2271 53.1316V49.1241M22.3827 26.7492C22.3827 26.7492 22.2155 36.2669 23.2187 39.6064C24.2218 42.946 24.308 43.8945 25.8937 45.9516C28.2468 49.004 32.1913 51.2948 34.2534 52.1297M34.0757 52.1297L38.7571 52.1297C40.8191 51.2948 44.7637 49.004 47.1167 45.9516C48.7025 43.8945 48.7886 42.946 49.7918 39.6064C50.795 36.2669 50.6278 26.7492 50.6278 26.7492C50.9064 31.8698 51.2965 42.946 50.6278 46.2855C49.959 49.6251 48.5657 51.6844 47.9527 52.2967M63 71.666H10M50.2934 54.8014C48.2871 59.6103 40.429 61.1465 36.918 61.3135C33.4069 61.1465 24.7129 59.6103 22.7066 54.8014M22.3722 26.9162C22.0936 32.0368 21.7035 43.1129 22.3722 46.4525C23.041 49.792 24.4343 51.8514 25.0473 52.4637M19.3977 27.0831C19.119 32.2038 18.7289 43.2799 19.3977 46.6195C20.0664 49.959 21.4597 52.0184 22.0727 52.6306H25.2145M53.6023 26.9162C53.881 32.0368 54.2711 43.1129 53.6023 46.4525C52.9336 49.792 51.5403 51.8514 50.9273 52.4637H47.7855M22.5394 26.9162C29.3386 26.7492 43.171 25.3466 44.1073 21.072C44.776 23.0757 48.7329 25.803 50.6278 26.9162M53.6372 27.0831C53.693 25.5247 53.1356 21.5729 52.4669 18.9013C51.7981 16.2296 49.0116 13.3354 47.2839 12.3891C44.8763 11.1869 40.9306 10.0515 39.4259 10.0515M19.3628 27.2501C19.307 25.6917 20.0315 21.5729 20.7003 18.9013C21.3691 16.2296 24.1556 13.3354 25.8833 12.3891C28.2909 11.1869 32.2366 10.0515 33.7413 10.0515H39.5931M28.224 11.3873C25.9502 8.84923 28.5584 5.6073 29.3943 4.7082C31.5678 2.37052 35.8034 1.86958 36.918 2.03655M45.4448 11.5543C47.7186 9.0162 45.2776 5.44033 44.4416 4.54122C42.2681 2.20354 37.8654 1.86958 36.7508 2.03656" stroke="#31582E" stroke-width="2"/>
</svg>
