<svg width="80" height="100" viewBox="0 0 80 100" fill="none" xmlns="http://www.w3.org/2000/svg">
<path d="M35.8938 9.206L35.9149 9.162C36.731 7.801 38.2481 6.956 39.8725 6.956C41.5146 6.956 43.0283 7.806 43.8407 9.176L52.4181 23.049L47.4775 25.92L59.9586 28.402L63.5207 16.582L58.5907 19.449L50.0778 5.687C47.9831 2.177 44.0686 0.000999451 39.8725 0.000999451C35.687 0.000999451 31.7831 2.163 29.6817 5.661L15.7328 28.225L21.9236 31.786L35.8938 9.206ZM71.902 55.684L71.9304 55.728C72.7423 57.089 72.7423 58.781 71.9336 60.137C71.1181 61.503 69.597 62.35 67.9586 62.342H67.9302L51.2175 62.575L51.0996 57.009L42.6365 66.19L51.4738 75.075L51.3559 69.525L67.9728 69.298C72.1688 69.298 76.0802 67.122 78.1744 63.616C80.2652 60.12 80.2723 55.777 78.1886 52.271L64.906 29.338L58.6117 32.728L71.902 55.684ZM11.7646 69.512L38.9996 69.889L39.1031 62.931L11.8502 62.56H11.7933C10.1617 62.56 8.64811 61.711 7.83941 60.352C7.01651 58.991 7.01651 57.299 7.84311 55.932L15.9999 41.829L21.0615 44.514L17.0509 32.854L4.65861 35.789L9.69171 38.469L1.58833 52.465C-0.506153 55.971 -0.509833 60.328 1.58833 63.834C3.67911 67.327 7.57961 69.504 11.7646 69.512ZM35.7012 50.572H41.106C41.628 47.804 42.4449 45.094 43.5441 42.483C44.6407 39.88 45.9233 37.601 47.392 35.649V31.772H31.9707V35.733H42.516C41.106 37.388 39.7841 39.526 38.5504 42.148C37.3167 44.77 36.3667 47.578 35.7012 50.572ZM12.4636 84.32C11.2428 83.647 9.80571 83.31 8.15171 83.31C6.48201 83.31 5.03671 83.647 3.81621 84.32C2.59543 84.993 1.65438 85.958 0.992797 87.214C0.331217 88.471 0.000427246 89.951 0.000427246 91.657C0.000427246 93.362 0.331217 94.843 0.992797 96.099C1.65438 97.356 2.59543 98.32 3.81621 98.993C5.03671 99.666 6.48201 100.003 8.15171 100.003C9.80571 100.003 11.2428 99.667 12.4636 98.993C13.6841 98.32 14.6254 97.356 15.287 96.099C15.9486 94.843 16.2794 93.362 16.2794 91.657C16.2794 89.951 15.9486 88.471 15.287 87.214C14.6254 85.958 13.6841 84.993 12.4636 84.32ZM10.9867 95.325C10.3094 96.2 9.36441 96.637 8.15151 96.637C6.92281 96.637 5.96961 96.2 5.29251 95.325C4.61521 94.45 4.27651 93.227 4.27651 91.657C4.27651 90.086 4.61491 88.863 5.29251 87.988C5.96961 87.113 6.92281 86.676 8.15151 86.676C9.36411 86.676 10.3094 87.113 10.9867 87.988C11.6638 88.863 12.0028 90.086 12.0028 91.657C12.0028 93.227 11.6638 94.45 10.9867 95.325ZM16.7044 86.967H21.8549V99.644H25.9423V86.967H31.0928V83.669H16.7044V86.967ZM43.2138 89.727H36.9999V83.669H32.9125V99.644H36.9999V93.025H43.2138V99.644H47.3012V83.669H43.2138V89.727ZM54.9796 93.16H62.2567V89.951H54.9796V86.922H62.7765V83.669H50.8923V99.644H62.9654V96.39H54.9796V93.16ZM78.3696 95.381C77.9757 94.349 77.5978 93.605 77.2354 93.148C76.8728 92.692 76.3925 92.367 75.7941 92.172V92.127C76.7546 91.858 77.5107 91.383 78.0623 90.703C78.6133 90.022 78.8891 89.196 78.8891 88.223C78.8891 85.187 76.8254 83.669 72.6988 83.669H65.8707V99.644H69.9581V93.81H71.4938C72.2812 93.81 72.876 93.971 73.2778 94.293C73.6794 94.614 74.0299 95.194 74.3291 96.031L75.6049 99.644H79.9994L78.3696 95.381ZM72.2031 90.871H69.9586V86.676H72.0378C73.912 86.676 74.8494 87.356 74.8494 88.717C74.8494 90.153 73.967 90.871 72.2031 90.871Z" fill="#A3C273"/>
</svg>
