<svg width="80" height="100" viewBox="0 0 80 100" fill="none" xmlns="http://www.w3.org/2000/svg">
<path d="M35.9987 9.239L36.02 9.194C36.8387 7.828 38.3611 6.98 39.9905 6.98C41.6379 6.98 43.1566 7.834 43.9716 9.208L52.5774 23.131L47.6205 26.012L60.1426 28.504L63.7166 16.641L58.7703 19.519L50.2292 5.707C48.1276 2.185 44.2003 0.000999451 39.9903 0.000999451C35.7911 0.000999451 31.8742 2.171 29.7661 5.681L15.7711 28.326L21.9824 31.899L35.9987 9.239ZM78.4334 52.458L65.1068 29.442L58.7918 32.845L72.1258 55.882L72.1545 55.927C72.969 57.293 72.969 58.991 72.1579 60.352C71.3397 61.723 69.8137 62.573 68.1697 62.564H68.1413L51.3734 62.799L51.2553 57.212L42.7642 66.427L51.6308 75.343L51.5126 69.773L68.1842 69.545C72.3942 69.545 76.3182 67.362 78.4195 63.843C80.5168 60.335 80.5242 55.977 78.4334 52.458ZM39.2187 63.156L11.8758 62.784H11.8187C10.1818 62.784 8.66319 61.932 7.85179 60.567C7.02629 59.201 7.02629 57.503 7.85549 56.132L16.0392 41.979L21.1176 44.673L17.0937 32.971L4.66049 35.917L9.7103 38.607L1.57999 52.653C-0.521325 56.171 -0.525005 60.543 1.57999 64.062C3.67759 67.567 7.5911 69.752 11.79 69.761L39.115 70.139L39.2187 63.156ZM46.7982 47.982C47.4658 46.955 47.8003 45.752 47.8003 44.37C47.8003 43.157 47.5203 42.075 46.9603 41.123C46.4003 40.171 45.6142 39.434 44.6026 38.912C43.5905 38.389 42.4366 38.128 41.1397 38.128C39.5484 38.128 38.2318 38.595 37.1905 39.528H37.1316L37.5442 35.72H46.6803V31.885H33.5068L32.3868 43.195L37.3084 43.503C37.4455 42.943 37.7358 42.5 38.1779 42.173C38.62 41.847 39.1845 41.683 39.8724 41.683C40.7366 41.683 41.4195 41.93 41.9205 42.425C42.4216 42.919 42.6721 43.642 42.6721 44.594C42.6721 45.565 42.4263 46.302 41.9353 46.806C41.444 47.31 40.7366 47.561 39.8134 47.561C39.0863 47.561 38.4771 47.37 37.9863 46.988C37.495 46.605 37.2395 46.078 37.22 45.406H32.1511C32.1511 47.197 32.8384 48.611 34.2139 49.647C35.5889 50.683 37.4358 51.201 39.7545 51.201C41.3458 51.201 42.7503 50.921 43.9687 50.361C45.1868 49.801 46.13 49.008 46.7982 47.982ZM32.9008 83.968H26.145V100H30.2458V94.619H32.9008C35.0024 94.619 36.5987 94.146 37.6892 93.2C38.7797 92.254 39.3247 90.956 39.3247 89.305C39.3247 87.638 38.7795 86.332 37.6892 85.387C36.5987 84.441 35.0024 83.968 32.9008 83.968ZM32.3318 91.489H30.2458V87.098H32.3318C34.1963 87.098 35.129 87.834 35.129 89.305C35.129 90.761 34.1963 91.489 32.3318 91.489ZM48.4034 83.968H41.6476V100H45.7487V94.619H48.4037C50.5053 94.619 52.1016 94.146 53.1921 93.2C54.2826 92.254 54.8276 90.956 54.8276 89.305C54.8276 87.638 54.2824 86.332 53.1921 85.387C52.1013 84.441 50.505 83.968 48.4034 83.968ZM47.8345 91.489H45.7484V87.098H47.8345C49.6989 87.098 50.6316 87.834 50.6316 89.305C50.6318 90.761 49.6992 91.489 47.8345 91.489Z" fill="#A3C273"/>
</svg>
