<svg width="80" height="100" viewBox="0 0 80 100" fill="none" xmlns="http://www.w3.org/2000/svg">
<path d="M35.9958 9.206L36.0171 9.162C36.8358 7.801 38.3582 6.956 39.9879 6.956C41.6355 6.956 43.1542 7.806 43.9692 9.176L52.5753 23.049L47.6182 25.92L60.1411 28.402L63.7153 16.582L58.7687 19.449L50.2274 5.687C48.1255 2.177 44.1979 0.000999451 39.9879 0.000999451C35.7884 0.000999451 31.8713 2.163 29.7632 5.661L15.7674 28.225L21.9789 31.786L35.9958 9.206ZM78.4326 52.271L65.1055 29.337L58.7903 32.728L72.1247 55.683L72.1532 55.728C72.9679 57.089 72.9679 58.781 72.1566 60.137C71.3384 61.503 69.8121 62.35 68.1682 62.341H68.1397L51.3711 62.575L51.2529 57.009L42.7613 66.19L51.6284 75.075L51.5103 69.524L68.1829 69.298C72.3932 69.298 76.3174 67.122 78.4187 63.616C80.5161 60.12 80.5234 55.777 78.4326 52.271ZM39.2158 62.931L11.8716 62.56H11.8145C10.1774 62.56 8.6587 61.711 7.8474 60.351C7.0218 58.99 7.02181 57.298 7.85111 55.932L16.0353 41.829L21.1139 44.514L17.0897 32.854L4.65581 35.789L9.7058 38.469L1.57501 52.465C-0.526315 55.971 -0.529995 60.328 1.57501 63.834C3.67261 67.327 7.58631 69.504 11.7855 69.512L39.1118 69.888L39.2158 62.931ZM46.9726 47.839C47.6211 46.834 47.9453 45.681 47.9453 44.38C47.9453 43.19 47.675 42.134 47.1347 41.214C46.5942 40.293 45.8329 39.578 44.8505 39.066C43.8679 38.555 42.7382 38.299 41.4613 38.299C39.6142 38.299 38.1111 38.903 36.9521 40.112H36.8932C36.9521 38.345 37.2911 37.039 37.91 36.193C38.5289 35.347 39.3395 34.924 40.3416 34.924C41.0092 34.924 41.5353 35.105 41.9184 35.468C42.3016 35.831 42.5418 36.356 42.6405 37.044H47.7097C47.5721 35.259 46.8745 33.859 45.6171 32.846C44.3595 31.832 42.6892 31.326 40.6068 31.326C38.8384 31.326 37.3155 31.73 36.0387 32.539C34.7613 33.348 33.7839 34.524 33.1063 36.068C32.4284 37.611 32.0895 39.471 32.0895 41.646C32.0895 44.715 32.7918 47.044 34.1968 48.634C35.6013 50.224 37.6008 51.019 40.1945 51.019C41.7071 51.019 43.0534 50.74 44.2321 50.182C45.4108 49.624 46.3242 48.843 46.9726 47.839ZM42.1392 46.583C41.6479 47.104 40.9995 47.364 40.1939 47.364C39.4079 47.364 38.7742 47.109 38.2929 46.597C37.8113 46.086 37.5708 45.421 37.5708 44.603C37.5708 43.729 37.8163 43.022 38.3076 42.483C38.7984 41.943 39.4374 41.674 40.2234 41.674C41.0289 41.674 41.6721 41.934 42.1539 42.455C42.6353 42.976 42.8761 43.673 42.8761 44.547C42.8758 45.384 42.63 46.063 42.1392 46.583ZM33.0042 83.669H26.2482V99.644H30.3492V94.282H33.0042C35.1058 94.282 36.7024 93.81 37.7929 92.868C38.8834 91.926 39.4287 90.632 39.4287 88.987C39.4287 87.326 38.8834 86.025 37.7929 85.082C36.7024 84.14 35.1061 83.669 33.0042 83.669ZM32.4353 91.163H30.3492V86.788H32.4353C34.3 86.788 35.2326 87.521 35.2326 88.987C35.2326 90.438 34.3 91.163 32.4353 91.163ZM51.649 90.77C50.8192 90.433 49.7324 90.108 48.3895 89.794C47.4887 89.585 46.8089 89.398 46.3508 89.233C45.8921 89.069 45.5566 88.878 45.3432 88.661C45.1297 88.444 45.0232 88.164 45.0232 87.82C45.0232 87.371 45.2247 87.008 45.6276 86.731C46.0305 86.455 46.5718 86.316 47.2516 86.316C48.0576 86.316 48.6776 86.507 49.1126 86.889C49.5471 87.27 49.7645 87.82 49.7645 88.538H54.0316C54.0316 86.833 53.4626 85.535 52.3247 84.645C51.1868 83.755 49.5511 83.31 47.4176 83.31C46.09 83.31 44.9245 83.512 43.9211 83.916C42.9174 84.319 42.1468 84.888 41.6097 85.621C41.0724 86.354 40.8037 87.207 40.8037 88.179C40.8037 89.256 41.0721 90.116 41.6097 90.759C42.1468 91.402 42.8266 91.888 43.6484 92.217C44.47 92.546 45.5687 92.875 46.9434 93.204C47.8442 93.429 48.5 93.612 48.9111 93.754C49.3218 93.896 49.6339 94.08 49.8474 94.304C50.0608 94.529 50.1674 94.835 50.1674 95.224C50.1674 95.748 49.9458 96.159 49.5037 96.458C49.0611 96.758 48.4524 96.907 47.6784 96.907C45.8134 96.907 44.8811 96.084 44.8811 94.439H40.5192C40.5192 96.204 41.1434 97.573 42.3921 98.545C43.6403 99.517 45.3711 100.003 47.5837 100.003C48.9742 100.003 50.1874 99.793 51.2226 99.374C52.2576 98.956 53.0597 98.361 53.6287 97.591C54.1976 96.821 54.4821 95.919 54.4821 94.887C54.4821 93.796 54.2174 92.921 53.6879 92.262C53.1579 91.604 52.4787 91.107 51.649 90.77Z" fill="#A3C273"/>
</svg>
