<svg width="80" height="100" viewBox="0 0 80 100" fill="none" xmlns="http://www.w3.org/2000/svg">
<path d="M36.0026 9.208L36.0239 9.164C36.8426 7.803 38.3653 6.957 39.9947 6.957C41.6424 6.957 43.1613 7.808 43.9763 9.177L52.5826 23.05L47.6255 25.921L60.1487 28.404L63.7229 16.583L58.7763 19.451L50.2347 5.689C48.1326 2.179 44.205 0.00299835 39.9947 0.00299835C35.795 0.00299835 31.8779 2.165 29.7695 5.663L15.7732 28.226L21.985 31.787L36.0026 9.208ZM78.4408 52.272L65.1131 29.339L58.7976 32.729L72.1326 55.685L72.1613 55.729C72.9761 57.09 72.9761 58.782 72.1645 60.138C71.3461 61.504 69.82 62.351 68.1761 62.343H68.1476L51.3784 62.576L51.2603 57.01L42.7684 66.192L51.6358 75.076L51.5176 69.526L68.1905 69.299C72.4008 69.299 76.3253 67.124 78.4266 63.617C80.5242 60.121 80.5316 55.778 78.4408 52.272ZM39.2229 62.932L11.8779 62.561H11.8208C10.1837 62.561 8.66499 61.712 7.85369 60.353C7.02789 58.991 7.0279 57.3 7.8574 55.933L16.0418 41.831L21.1205 44.516L17.0961 32.856L4.6618 35.791L9.71209 38.471L1.58078 52.466C-0.520795 55.973 -0.524475 60.329 1.58078 63.835C3.67869 67.328 7.59239 69.505 11.7916 69.513L39.1187 69.89L39.2229 62.932ZM41.925 46.738C41.4434 47.119 40.8 47.31 39.9945 47.31C37.9508 47.31 36.9292 46.315 36.9292 44.325H31.8303C31.8303 46.501 32.5326 48.161 33.9376 49.304C35.3421 50.448 37.361 51.02 39.9945 51.02C41.5463 51.02 42.9021 50.792 44.0618 50.336C45.221 49.881 46.12 49.225 46.7587 48.37C47.3968 47.515 47.7166 46.52 47.7166 45.385C47.7166 44.214 47.4168 43.27 46.8176 42.554C46.2182 41.838 45.2703 41.276 43.9734 40.867V40.811C45.1716 40.402 46.0463 39.867 46.5966 39.207C47.1463 38.547 47.4218 37.697 47.4218 36.655C47.4218 35.019 46.7487 33.722 45.4029 32.764C44.0568 31.806 42.2345 31.327 39.9355 31.327C37.4597 31.327 35.5339 31.904 34.1587 33.057C32.7832 34.21 32.0955 35.809 32.0955 37.854H37.0766C37.0766 36.925 37.3171 36.223 37.7987 35.748C38.28 35.274 38.9629 35.037 39.8471 35.037C40.6326 35.037 41.2618 35.223 41.7334 35.595C42.205 35.967 42.4408 36.479 42.4408 37.129C42.4408 37.799 42.146 38.338 41.5566 38.747C40.9671 39.156 40.1613 39.361 39.1397 39.361H38.4913V42.931H39.0808C41.4579 42.931 42.6471 43.694 42.6471 45.218C42.6471 45.85 42.4063 46.357 41.925 46.738ZM24.3705 83.67H17.6142V99.644H21.7155V94.282H24.3708C26.4726 94.282 28.0689 93.811 29.1595 92.869C30.25 91.926 30.7953 90.633 30.7953 88.987C30.7953 87.327 30.25 86.026 29.1595 85.083C28.0689 84.141 26.4724 83.67 24.3705 83.67ZM23.8016 91.164H21.7153V86.789H23.8016C25.6663 86.789 26.5989 87.522 26.5989 88.987C26.5989 90.438 25.6663 91.164 23.8016 91.164ZM40.3489 89.84C39.6534 92.159 39.1163 94.252 38.7368 96.122H38.6895C38.264 94.003 37.726 91.907 37.0774 89.84L35.2518 83.67H30.9611L36.0342 99.644H41.3918L46.465 83.67H42.1979L40.3489 89.84ZM56.9553 95.898C56.3939 96.391 55.671 96.638 54.786 96.638C53.6955 96.638 52.8303 96.193 52.1903 95.303C51.5503 94.413 51.2303 93.198 51.2303 91.657C51.2303 90.117 51.5503 88.902 52.1903 88.012C52.8303 87.122 53.7113 86.677 54.8337 86.677C55.7187 86.677 56.4339 86.916 56.9792 87.395C57.5245 87.873 57.8445 88.547 57.9392 89.414H62.1826C62.1353 88.188 61.8034 87.114 61.1868 86.194C60.5703 85.275 59.7171 84.564 58.6266 84.063C57.536 83.562 56.2716 83.311 54.8334 83.311C53.2213 83.311 51.8226 83.648 50.6374 84.321C49.4521 84.994 48.5392 85.955 47.8992 87.204C47.2592 88.453 46.9392 89.938 46.9392 91.658C46.9392 93.378 47.2553 94.862 47.8874 96.111C48.5192 97.36 49.4242 98.321 50.6018 98.994C51.7789 99.667 53.1739 100.004 54.786 100.004C56.951 100.004 58.6976 99.465 60.0253 98.388C61.3529 97.311 62.0955 95.786 62.2537 93.811H57.9626C57.8521 94.709 57.516 95.404 56.9553 95.898Z" fill="#A3C273"/>
</svg>
