<svg width="80" height="100" viewBox="0 0 80 100" fill="none" xmlns="http://www.w3.org/2000/svg">
<g clip-path="url(#clip0_0_1)">
<path d="M36.0011 9.24036L36.0224 9.19586C36.8411 7.82986 38.3635 6.98186 39.9932 6.98186C41.6408 6.98186 43.1598 7.83511 43.9748 9.20986L52.5813 23.1324L47.624 26.0136L60.1471 28.5046L63.7214 16.6421L58.7748 19.5196L50.2332 5.70811C48.1313 2.18586 44.2037 0.00260925 39.9935 0.00260925C35.7937 0.00260925 31.8766 2.17236 29.7682 5.68236L15.7719 28.3266L21.9837 31.9001L36.0011 9.24036ZM78.4392 52.4584L65.1116 29.4434L58.7961 32.8459L72.1311 55.8834L72.1595 55.9279C72.9742 57.2939 72.9742 58.9919 72.1629 60.3526C71.3445 61.7239 69.8184 62.5736 68.1745 62.5654H68.1461L51.3769 62.7996L51.2587 57.2134L42.7669 66.4276L51.6342 75.3441L51.5161 69.7736L68.1892 69.5459C72.3995 69.5459 76.324 67.3626 78.4253 63.8439C80.5229 60.3351 80.53 55.9771 78.4392 52.4584ZM39.1174 70.1391L39.2213 63.1566L11.8763 62.7841H11.8192C10.1821 62.7841 8.66345 61.9326 7.85187 60.5679C7.02608 59.2019 7.02608 57.5039 7.85556 56.1329L16.04 41.9796L21.1187 44.6741L17.0942 32.9724L4.66003 35.9184L9.71029 38.6079L1.5795 52.6534C-0.522075 56.1721 -0.525759 60.5439 1.5795 64.0626C3.6774 67.5676 7.59108 69.7526 11.7903 69.7611L39.1174 70.1391ZM43.4413 50.7536V31.8864H38.9027C38.7258 33.0436 38.2198 33.8786 37.3848 34.3919C36.5495 34.9054 35.2871 35.1616 33.5974 35.1616V38.5769H38.4016V50.7539H43.4413V50.7536ZM18.3827 83.9684H11.6261V99.9999H15.7274V94.6184H18.3827C20.4845 94.6184 22.0808 94.1456 23.1713 93.1999C24.2619 92.2541 24.8071 90.9559 24.8071 89.3046C24.8071 87.6384 24.2619 86.3324 23.1713 85.3869C22.0808 84.4411 20.4842 83.9684 18.3827 83.9684ZM17.8137 91.4889H15.7274V87.0981H17.8137C19.6785 87.0981 20.6111 87.8339 20.6111 89.3046C20.6111 90.7609 19.6782 91.4889 17.8137 91.4889ZM31.2313 93.4926H38.5329V90.2729H31.2313V87.2331H39.0545V83.9684H27.13V99.9999H39.2442V96.7351H31.2313V93.4926ZM40.3819 87.2781H45.55V99.9999H49.6513V87.2781H54.8195V83.9681H40.3821L40.3819 87.2781ZM60.7461 93.4926H68.0477V90.2729H60.7461V87.2331H68.5692V83.9684H56.6448V99.9999H68.759V96.7351H60.7461V93.4926Z" fill="#A3C273"/>
</g>
<defs>
<clipPath id="clip0_0_1">
<rect width="80" height="100" fill="white"/>
</clipPath>
</defs>
</svg>
