<svg width="80" height="100" viewBox="0 0 80 100" fill="none" xmlns="http://www.w3.org/2000/svg">
<path d="M35.9988 9.23801L36.0201 9.194C36.8388 7.827 38.3614 6.979 39.9908 6.979C41.6384 6.979 43.1574 7.83299 43.9724 9.20799L52.5788 23.13L47.6218 26.012L60.1447 28.503L63.7189 16.64L58.7724 19.518L50.2309 5.70599C48.1291 2.18299 44.2016 0 39.9914 0C35.7917 0 31.8746 2.16999 29.7662 5.67999L15.7701 28.325L21.9819 31.898L35.9988 9.23801ZM78.4363 52.457L65.1089 29.442L58.7935 32.844L72.1283 55.882L72.1569 55.927C72.9717 57.293 72.9717 58.991 72.1604 60.352C71.342 61.723 69.8159 62.573 68.172 62.564H68.1433L51.3743 62.799L51.2562 57.212L42.7645 66.427L51.6317 75.344L51.5136 69.773L68.1865 69.545C72.3967 69.545 76.3211 67.362 78.4224 63.843C80.52 60.334 80.5271 55.976 78.4363 52.457ZM39.1151 70.138L39.219 63.156L11.8744 62.783H11.8173C10.1802 62.783 8.66155 61.932 7.84998 60.567C7.02421 59.201 7.02421 57.503 7.85367 56.132L16.038 41.978L21.1166 44.673L17.0922 32.971L4.65819 35.917L9.70838 38.606L1.57744 52.652C-0.524103 56.171 -0.527524 60.543 1.57744 64.062C3.67531 67.567 7.58894 69.752 11.7881 69.76L39.1151 70.138ZM40.2558 39.877C39.6664 40.26 38.8116 40.749 37.6917 41.347C36.1983 42.13 35.0391 42.933 34.2138 43.754C33.3886 44.576 32.8088 45.467 32.4749 46.428C32.1407 47.389 31.9738 48.541 31.9738 49.885C31.9738 50.296 31.9836 50.585 32.0033 50.753H47.8597V46.918H37.9274C37.9637 46.552 38.0954 46.201 38.3106 45.896C38.5266 45.588 38.934 45.238 39.5337 44.846C40.1329 44.454 41.0221 43.969 42.2011 43.39C43.3403 42.83 44.2739 42.28 45.001 41.739C45.7276 41.198 46.3023 40.545 46.7252 39.779C47.1476 39.014 47.3589 38.1 47.3589 37.036C47.3589 35.935 47.0539 34.96 46.4452 34.11C45.836 33.261 44.9715 32.604 43.8516 32.137C42.7316 31.671 41.4248 31.437 39.9316 31.437C37.5343 31.437 35.658 32.002 34.3022 33.131C32.9465 34.26 32.2586 35.87 32.2391 37.96H37.279C37.279 37.045 37.5046 36.35 37.9569 35.874C38.4087 35.398 39.0666 35.16 39.9316 35.16C40.639 35.16 41.1887 35.333 41.5821 35.678C41.975 36.024 42.1716 36.495 42.1716 37.092C42.1716 37.671 41.9995 38.184 41.6558 38.632C41.3119 39.079 40.8453 39.495 40.2558 39.877ZM18.9022 90.047H12.6675V83.968H8.56629V100H12.6675V93.358H18.9025V100H23.0034V83.968H18.9022V90.047ZM39.2537 86.051C37.6969 84.663 35.4725 83.968 32.5804 83.968H26.6063V100H32.5804C35.4725 100 37.6969 99.306 39.2537 97.917C40.8103 96.529 41.5887 94.551 41.5887 91.984C41.589 89.417 40.8103 87.439 39.2537 86.051ZM36.1009 95.508C35.2867 96.296 34.0817 96.69 32.4857 96.69H30.6841V87.278H32.4857C34.0817 87.278 35.2867 87.672 36.1009 88.46C36.9146 89.248 37.3217 90.423 37.3217 91.984C37.3217 93.545 36.9148 94.72 36.1009 95.508ZM50.9528 83.968H44.1966V100H48.2978V94.618H50.953C53.0549 94.618 54.6511 94.146 55.7417 93.2C56.8322 92.254 57.3774 90.956 57.3774 89.304C57.3774 87.638 56.8322 86.332 55.7417 85.387C54.6511 84.441 53.0543 83.968 50.9528 83.968ZM50.3838 91.489H48.2976V87.098H50.3838C52.2485 87.098 53.1812 87.834 53.1812 89.304C53.1812 90.761 52.2483 91.489 50.3838 91.489ZM63.8013 93.493H71.1027V90.273H63.8013V87.233H71.6243V83.968H59.7003V100H71.8143V96.735H63.8015L63.8013 93.493Z" fill="#A3C273"/>
</svg>
