<svg width="80" height="100" viewBox="0 0 80 100" fill="none" xmlns="http://www.w3.org/2000/svg">
<path d="M35.9968 9.24099L36.0182 9.19599C36.8368 7.82999 38.3592 6.98199 39.9889 6.98199C41.6366 6.98199 43.1555 7.83599 43.9705 9.20999L52.5768 23.133L47.6197 26.014L60.1429 28.505L63.7171 16.643L58.7705 19.52L50.2289 5.70899C48.1271 2.18599 44.1995 0.00299072 39.9892 0.00299072C35.7895 0.00299072 31.8724 2.17299 29.7639 5.68299L15.7676 28.327L21.9795 31.901L35.9968 9.24099ZM78.4353 52.459L65.1076 29.444L58.7924 32.846L72.1274 55.884L72.1558 55.929C72.9705 57.295 72.9705 58.993 72.1592 60.353C71.3408 61.725 69.8147 62.574 68.1708 62.566H68.1421L51.3729 62.8L51.2547 57.214L42.7629 66.428L51.6303 75.345L51.5121 69.774L68.185 69.547C72.3953 69.547 76.3197 67.363 78.421 63.845C80.5187 60.336 80.526 55.978 78.4353 52.459ZM39.1132 70.14L39.2171 63.157L11.8721 62.785H11.815C10.1779 62.785 8.6592 61.933 7.8476 60.569C7.0221 59.203 7.0221 57.505 7.8513 56.133L16.0358 41.98L21.1145 44.675L17.0903 32.973L4.6561 35.919L9.7063 38.608L1.57526 52.654C-0.526319 56.173 -0.529999 60.545 1.57526 64.064C3.6732 67.569 7.5868 69.754 11.7861 69.762L39.1132 70.14ZM45.53 50.754V46.835H48.5953V43.224H45.53V31.887H38.9574L31.1468 43.028V46.835H40.5782V50.754H45.53ZM35.5679 43.224L37.4542 40.593C38.7511 38.745 39.9005 36.963 40.9026 35.246H40.9616C40.8239 37.075 40.7553 39.035 40.7553 41.124V43.224H35.5679ZM14.8108 83.969H10.7095V100.001H22.4442V96.691H14.8108V83.969ZM37.1066 86.052C35.5497 84.664 33.3253 83.969 30.4332 83.969H24.4592V100.001H30.4334C33.3255 100.001 35.55 99.307 37.1068 97.918C38.6634 96.53 39.4418 94.552 39.4418 91.985C39.4418 89.419 38.6632 87.441 37.1066 86.052ZM33.9537 95.509C33.1395 96.297 31.9345 96.691 30.3384 96.691H28.5368V87.279H30.3384C31.9345 87.279 33.1395 87.673 33.9537 88.461C34.7674 89.249 35.1745 90.424 35.1745 91.985C35.1745 93.546 34.7674 94.721 33.9537 95.509ZM48.8058 83.969H42.0495V100.001H46.1508V94.619H48.806C50.9079 94.619 52.5042 94.147 53.5947 93.201C54.6853 92.255 55.2305 90.957 55.2305 89.306C55.2305 87.639 54.6853 86.333 53.5947 85.388C52.5039 84.442 50.9074 83.969 48.8058 83.969ZM48.2366 91.49H46.1503V87.099H48.2366C50.1013 87.099 51.0339 87.835 51.0339 89.305C51.0342 90.762 50.1013 91.49 48.2366 91.49ZM61.6545 93.494H68.956V90.274H61.6545V87.234H69.4776V83.969H57.5532V100.001H69.6674V96.736H61.6545V93.494Z" fill="#A3C273"/>
</svg>
