<svg width="109" height="101" viewBox="0 0 109 101" fill="none" xmlns="http://www.w3.org/2000/svg">
<path d="M49.2485 13.6478L49.2763 13.5919C50.351 11.8696 52.3489 10.8 54.4882 10.8C56.6508 10.8 58.6442 11.876 59.714 13.6096L71.0098 31.1647L64.5035 34.7978L80.9402 37.9388L85.6312 22.9809L79.1388 26.6095L67.9278 9.19421C65.1692 4.75292 60.0141 2 54.4882 2C48.9762 2 43.8349 4.73583 41.0676 9.16163L22.6978 37.7146L30.8507 42.2204L49.2485 13.6478ZM96.6688 72.4613L96.7062 72.5173C97.7753 74.2399 97.7754 76.3806 96.7104 78.0966C95.6364 79.8258 93.6333 80.8973 91.4756 80.8865H91.4382L69.4288 81.182L69.2735 74.1383L58.1282 85.7568L69.7663 97L69.6111 89.976L91.4943 89.6891C97.0203 89.6891 102.171 86.9362 104.929 82.4992C107.683 78.0751 107.692 72.58 104.948 68.1431L87.4555 39.1227L79.1665 43.413L96.6688 72.4613ZM17.472 89.9605L53.3387 90.437L53.4748 81.6324L17.5847 81.1627H17.5098C15.3611 81.1627 13.3677 80.0889 12.3027 78.3683C11.219 76.6461 11.219 74.5049 12.3076 72.7758L23.0496 54.9296L29.7154 58.3273L24.4338 43.5718L8.11385 47.2865L14.7422 50.6778L4.07053 68.3886C1.31225 72.8254 1.3074 78.3379 4.07053 82.7748C6.82395 87.1946 11.9607 89.9497 17.472 89.9605Z" fill="#BDD9B2" stroke="#31582E" stroke-width="3"/>
</svg>
