<svg width="72" height="72" viewBox="0 0 72 72" fill="none" xmlns="http://www.w3.org/2000/svg">
<circle cx="36" cy="36" r="35" fill="#BDD9B2" stroke="#31582E" stroke-width="2"/>
<path d="M15.5503 39.9103C16.5266 41.1685 19.2749 42.9742 22.457 40.1309C23.227 38.3149 24.6031 34.2277 23.9476 32.4071C22.5292 31.5438 19.3404 30.583 17.9316 33.6465C17.9316 33.6465 15.5678 35.9843 15.5503 39.9103Z" fill="#8DAC81" stroke="#31582E" stroke-width="2"/>
<path d="M35.9168 19C37.4888 15.6667 39.6897 7.6 35.9168 2H28.3994L22.1872 4.28571L17.6693 6.57143L11.4571 11.1429L6.93918 16.8571L2.98598 24.2857C2.46198 26.7857 -0.402452 34.5714 1.8565 42C5.34987 41.3333 12.3366 38.3 12.3366 31.5C11.1139 27.3333 10.9742 19.5 20.1967 21.5C24.0394 24.6667 32.5632 28.6 35.9168 19Z" fill="#8DAC81" stroke="#31582E" stroke-width="2"/>
<path d="M58.0113 31.5178C61.0969 28.1784 67.9865 24.6339 70.8605 37.171L70.4818 40.7526L67.2704 50.0431L62.9761 57.3339L53.1598 65.8431L44.1732 69.2254L36.6301 70.5168C35.222 64.1112 35.903 50.0527 49.8918 45.0629C52.755 44.9597 58.3875 42.1061 58.0113 31.5178Z" fill="#8DAC81" stroke="#31582E" stroke-width="2"/>
</svg>
