<svg width="900" height="134" viewBox="0 0 900 134" fill="none" xmlns="http://www.w3.org/2000/svg">
<path d="M285.761 40.5028L277.905 32.6477V0H296.563V27.9837H297.791L298.527 27.0018V0H317.185V55.4765H298.527V40.5028H285.761Z" fill="url(#paint0_linear_2120_98)"/>
<path d="M275.45 19.6377V55.4765H256.792V19.6377H275.45Z" fill="url(#paint1_linear_2120_98)"/>
<path d="M275.45 0V16.9375H256.792V0H275.45Z" fill="url(#paint2_linear_2120_98)"/>
<path d="M254.337 0H215.057V55.4765H233.715V19.6377H254.337V0Z" fill="url(#paint3_linear_2120_98)"/>
<path fill-rule="evenodd" clip-rule="evenodd" d="M212.568 7.85508L204.712 0H181.144L173.322 7.85508V47.6214L181.144 55.4765H204.712L212.568 47.6214V7.85508ZM193.944 35.7161H191.946V19.7604H193.944V35.7161Z" fill="url(#paint4_linear_2120_98)"/>
<path d="M170.867 55.4765V0H141.963L133.811 7.85508V40.0118H131.588V55.4765H150.116V20.8651H152.092V55.4765H170.867Z" fill="url(#paint5_linear_2120_98)"/>
<path d="M0 0V55.4765H39.2799V36.5752H19.8854V34.6115H39.2799V20.8651H19.8854V18.9013H39.2799V0H0Z" fill="url(#paint6_linear_2120_98)"/>
<path d="M361.375 0V55.4765H400.655V36.5752H381.26V34.6115H400.655V20.8651H381.26V18.9013H400.655V0H361.375Z" fill="url(#paint7_linear_2120_98)"/>
<path d="M41.7349 0V55.4765H62.1113V40.7482L72.6678 55.4765H87.3977V40.7482L77.5777 26.5109L87.3977 14.7283V0H72.6678L62.1113 12.0281V0H41.7349Z" fill="url(#paint8_linear_2120_98)"/>
<path d="M319.64 0V55.4765H338.298V34.6115H340.262V55.4765H358.92V0H340.262V21.356H338.298V0H319.64Z" fill="url(#paint9_linear_2120_98)"/>
<path fill-rule="evenodd" clip-rule="evenodd" d="M129.098 7.85508L121.242 0H97.6739L89.8527 7.85508V47.6214L97.6739 55.4765H121.242L129.098 47.6214V7.85508ZM110.475 35.7161H108.476V19.7604H110.475V35.7161Z" fill="url(#paint10_linear_2120_98)"/>
<path d="M885.27 31.4203V16.6921H900V31.4203H885.27Z" fill="url(#paint11_linear_2120_98)"/>
<path fill-rule="evenodd" clip-rule="evenodd" d="M885.27 55.231V40.5028H900V55.231H885.27Z" fill="url(#paint12_linear_2120_98)"/>
<path fill-rule="evenodd" clip-rule="evenodd" d="M882.815 0V55.4765H862.439V44.6758L852.373 55.4765H840.589V40.7482L846.481 34.366L840.589 27.9837V7.85508L848.445 0H882.815ZM862.439 23.8107H860.72V15.9556H862.439V23.8107Z" fill="url(#paint13_linear_2120_98)"/>
<path fill-rule="evenodd" clip-rule="evenodd" d="M579.378 0L587.234 7.85508V32.6477L579.378 40.5028H566.612V55.4765H547.954V0H579.378ZM566.612 27.9837H568.576V16.2011H567.349L566.612 17.183V27.9837Z" fill="url(#paint14_linear_2120_98)"/>
<path fill-rule="evenodd" clip-rule="evenodd" d="M545.499 47.6214L537.643 55.4765H506.219V0H545.499V13.01H524.877V14.9738H537.643L545.499 22.8288V47.6214ZM524.877 27.4928H526.841V39.2754H525.614L524.877 38.2935V27.4928Z" fill="url(#paint15_linear_2120_98)"/>
<path fill-rule="evenodd" clip-rule="evenodd" d="M485.106 55.4765H503.764V7.85508L495.908 0H472.34L464.484 7.85508V55.4765H483.142V40.5028H485.106V55.4765ZM485.106 27.9837H483.142V17.183L483.879 16.2011H485.106V27.9837Z" fill="url(#paint16_linear_2120_98)"/>
<path d="M798.854 0V55.4765H817.512V34.6115H819.476V55.4765H838.134V0H819.476V21.356H817.512V0H798.854Z" fill="url(#paint17_linear_2120_98)"/>
<path d="M673.65 0V55.4765H692.308V34.6115H694.272V55.4765H712.93V0H694.272V21.356H692.308V0H673.65Z" fill="url(#paint18_linear_2120_98)"/>
<path d="M757.119 0V55.4765H775.777V34.6115H777.741V55.4765H796.399V0H777.741V21.356H775.777V0H757.119Z" fill="url(#paint19_linear_2120_98)"/>
<path d="M715.385 0V55.4765H754.664V36.5752H735.27V34.6115H754.664V20.8651H735.27V18.9013H754.664V0H715.385Z" fill="url(#paint20_linear_2120_98)"/>
<path d="M589.689 42.0051V55.4765H621.604L629.214 47.8669V0H610.328V27.0018L609.574 27.9837H608.347V0H589.689V32.6477L597.545 40.5028H610.328L609.083 42.0051H589.689Z" fill="url(#paint21_linear_2120_98)"/>
<path fill-rule="evenodd" clip-rule="evenodd" d="M671.16 7.85508L663.304 0H631.915V55.4765H663.304L671.16 47.6214V7.85508ZM652.537 35.7161H650.538V19.7604H652.537V35.7161Z" fill="url(#paint22_linear_2120_98)"/>
<path d="M422.75 55.4765V36.5752H442.144V34.6115H422.75V20.8651H442.144V18.9013H422.75V0H454.173L462.029 7.85508V18.9013L454.173 27.7383L462.029 36.5752V47.6214L454.173 55.4765H422.75Z" fill="url(#paint23_linear_2120_98)"/>
<path fill-rule="evenodd" clip-rule="evenodd" d="M345.172 67.7501L353.028 75.6052V100.398L345.172 108.253H332.406V123.227H313.748V67.7501H345.172ZM332.406 95.7338H334.37V83.9512H333.142L332.406 84.9331V95.7338Z" fill="url(#paint24_linear_2120_98)"/>
<path d="M103.601 68.732V124.208H123.977V109.48L134.534 124.208H149.264V109.48L139.444 95.2429L149.264 83.4603V68.732H134.534L123.977 80.7601V68.732H103.601Z" fill="url(#paint25_linear_2120_98)"/>
<path d="M272.013 67.7501V123.227H290.671V88.6151H292.635V123.227H311.293V67.7501H272.013Z" fill="url(#paint26_linear_2120_98)"/>
<path d="M235.188 123.227V108.498H249.918L249.427 127.4L242.593 133.012C242.577 133.026 242.553 133.014 242.553 132.994V123.227H235.188Z" fill="url(#paint27_linear_2120_98)"/>
<path d="M564.157 124.208V109.48H578.887L578.396 128.382L571.562 133.994C571.546 134.008 571.522 133.996 571.522 133.975V124.208H564.157Z" fill="url(#paint28_linear_2120_98)"/>
<path d="M561.702 68.732V124.208H547.954V108.498L536.17 124.208H522.422V68.732H536.17V84.4421L547.954 68.732H561.702Z" fill="url(#paint29_linear_2120_98)"/>
<path d="M405.074 109.235L397.218 101.38V68.732H415.876V96.7157H417.103L417.84 95.7338V68.732H436.498V124.208H417.84V109.235H405.074Z" fill="url(#paint30_linear_2120_98)"/>
<path d="M480.687 68.732V124.208H499.345V103.343H501.309V124.208H519.967V68.732H501.309V90.088H499.345V68.732H480.687Z" fill="url(#paint31_linear_2120_98)"/>
<path d="M232.733 67.7501V123.227H218.985V107.516L207.201 123.227H193.453V67.7501H207.201V83.4603L218.985 67.7501H232.733Z" fill="url(#paint32_linear_2120_98)"/>
<path d="M394.763 67.7501V123.227H381.015V107.516L369.231 123.227H355.483V67.7501H369.231V83.4603L381.015 67.7501H394.763Z" fill="url(#paint33_linear_2120_98)"/>
<path d="M478.232 68.732V124.208H464.484V108.498L452.7 124.208H438.953V68.732H452.7V84.4421L464.484 68.732H478.232Z" fill="url(#paint34_linear_2120_98)"/>
<path d="M190.998 68.732H151.718V88.3697H162.029V124.208H180.687V88.3697H190.998V68.732Z" fill="url(#paint35_linear_2120_98)"/>
<path d="M10.311 80.7688L17.2632 70.9412H26.6052V67.7501H43.1167V70.9412H52.4586L59.4108 80.7688V110.251L52.4586 120.035H43.1167V123.227H26.6052V120.035H17.2632L10.311 110.251V80.7688Z" fill="url(#paint36_linear_2120_98)"/>
<path fill-rule="evenodd" clip-rule="evenodd" d="M82.4877 123.227H101.146V75.6052L93.2897 67.7501H69.7218L61.8658 75.6052V123.227H80.5237V108.253H82.4877V123.227ZM82.4877 95.7338H80.5237V84.9331L81.2602 83.9512H82.4877V95.7338Z" fill="url(#paint37_linear_2120_98)"/>
<path d="M661.866 88.3697V124.208H643.208V88.3697H661.866Z" fill="url(#paint38_linear_2120_98)"/>
<path d="M661.866 68.732V85.6695H643.208V68.732H661.866Z" fill="url(#paint39_linear_2120_98)"/>
<path d="M722.259 68.732V124.208H761.538V105.307H742.144V103.343H761.538V89.597H742.144V87.6333H761.538V68.732H722.259Z" fill="url(#paint40_linear_2120_98)"/>
<path d="M805.728 68.732V124.208H824.386V103.343H826.35V124.208H845.008V68.732H826.35V90.088H824.386V68.732H805.728Z" fill="url(#paint41_linear_2120_98)"/>
<path d="M763.993 68.732V124.208H782.651V103.343H784.615V124.208H803.273V68.732H784.615V90.088H782.651V68.732H763.993Z" fill="url(#paint42_linear_2120_98)"/>
<path fill-rule="evenodd" clip-rule="evenodd" d="M889.689 68.732V124.208H869.313V113.408L859.247 124.208H847.463V109.48L853.355 103.098L847.463 96.7157V76.5871L855.319 68.732H889.689ZM869.313 92.5427H867.594V84.6876H869.313V92.5427Z" fill="url(#paint43_linear_2120_98)"/>
<path fill-rule="evenodd" clip-rule="evenodd" d="M632.897 68.732L640.753 76.5871V101.38L632.897 109.235H620.131V124.208H601.473V68.732H632.897ZM620.131 96.7157H622.095V84.9331H620.867L620.131 85.915V96.7157Z" fill="url(#paint44_linear_2120_98)"/>
<path d="M664.321 124.208V68.732H681.602V103.343H683.421V68.732H700.703V103.343H702.522V68.732H719.804V124.208H664.321Z" fill="url(#paint45_linear_2120_98)"/>
<defs>
<linearGradient id="paint0_linear_2120_98" x1="2115" y1="-175.504" x2="2115" y2="134.593" gradientUnits="userSpaceOnUse">
<stop offset="0.548077" stop-color="#F8F9ED"/>
<stop offset="1" stop-color="#F8F9ED" stop-opacity="0.1"/>
</linearGradient>
<linearGradient id="paint1_linear_2120_98" x1="2115" y1="-175.504" x2="2115" y2="134.593" gradientUnits="userSpaceOnUse">
<stop offset="0.548077" stop-color="#F8F9ED"/>
<stop offset="1" stop-color="#F8F9ED" stop-opacity="0.1"/>
</linearGradient>
<linearGradient id="paint2_linear_2120_98" x1="2115" y1="-175.504" x2="2115" y2="134.593" gradientUnits="userSpaceOnUse">
<stop offset="0.548077" stop-color="#F8F9ED"/>
<stop offset="1" stop-color="#F8F9ED" stop-opacity="0.1"/>
</linearGradient>
<linearGradient id="paint3_linear_2120_98" x1="2115" y1="-175.504" x2="2115" y2="134.593" gradientUnits="userSpaceOnUse">
<stop offset="0.548077" stop-color="#F8F9ED"/>
<stop offset="1" stop-color="#F8F9ED" stop-opacity="0.1"/>
</linearGradient>
<linearGradient id="paint4_linear_2120_98" x1="2115" y1="-175.504" x2="2115" y2="134.593" gradientUnits="userSpaceOnUse">
<stop offset="0.548077" stop-color="#F8F9ED"/>
<stop offset="1" stop-color="#F8F9ED" stop-opacity="0.1"/>
</linearGradient>
<linearGradient id="paint5_linear_2120_98" x1="2115" y1="-175.504" x2="2115" y2="134.593" gradientUnits="userSpaceOnUse">
<stop offset="0.548077" stop-color="#F8F9ED"/>
<stop offset="1" stop-color="#F8F9ED" stop-opacity="0.1"/>
</linearGradient>
<linearGradient id="paint6_linear_2120_98" x1="2115" y1="-175.504" x2="2115" y2="134.593" gradientUnits="userSpaceOnUse">
<stop offset="0.548077" stop-color="#F8F9ED"/>
<stop offset="1" stop-color="#F8F9ED" stop-opacity="0.1"/>
</linearGradient>
<linearGradient id="paint7_linear_2120_98" x1="2115" y1="-175.504" x2="2115" y2="134.593" gradientUnits="userSpaceOnUse">
<stop offset="0.548077" stop-color="#F8F9ED"/>
<stop offset="1" stop-color="#F8F9ED" stop-opacity="0.1"/>
</linearGradient>
<linearGradient id="paint8_linear_2120_98" x1="2115" y1="-175.504" x2="2115" y2="134.593" gradientUnits="userSpaceOnUse">
<stop offset="0.548077" stop-color="#F8F9ED"/>
<stop offset="1" stop-color="#F8F9ED" stop-opacity="0.1"/>
</linearGradient>
<linearGradient id="paint9_linear_2120_98" x1="2115" y1="-175.504" x2="2115" y2="134.593" gradientUnits="userSpaceOnUse">
<stop offset="0.548077" stop-color="#F8F9ED"/>
<stop offset="1" stop-color="#F8F9ED" stop-opacity="0.1"/>
</linearGradient>
<linearGradient id="paint10_linear_2120_98" x1="2115" y1="-175.504" x2="2115" y2="134.593" gradientUnits="userSpaceOnUse">
<stop offset="0.548077" stop-color="#F8F9ED"/>
<stop offset="1" stop-color="#F8F9ED" stop-opacity="0.1"/>
</linearGradient>
<linearGradient id="paint11_linear_2120_98" x1="2115" y1="-175.504" x2="2115" y2="134.593" gradientUnits="userSpaceOnUse">
<stop offset="0.548077" stop-color="#F8F9ED"/>
<stop offset="1" stop-color="#F8F9ED" stop-opacity="0.1"/>
</linearGradient>
<linearGradient id="paint12_linear_2120_98" x1="2115" y1="-175.504" x2="2115" y2="134.593" gradientUnits="userSpaceOnUse">
<stop offset="0.548077" stop-color="#F8F9ED"/>
<stop offset="1" stop-color="#F8F9ED" stop-opacity="0.1"/>
</linearGradient>
<linearGradient id="paint13_linear_2120_98" x1="2115" y1="-175.504" x2="2115" y2="134.593" gradientUnits="userSpaceOnUse">
<stop offset="0.548077" stop-color="#F8F9ED"/>
<stop offset="1" stop-color="#F8F9ED" stop-opacity="0.1"/>
</linearGradient>
<linearGradient id="paint14_linear_2120_98" x1="2115" y1="-175.504" x2="2115" y2="134.593" gradientUnits="userSpaceOnUse">
<stop offset="0.548077" stop-color="#F8F9ED"/>
<stop offset="1" stop-color="#F8F9ED" stop-opacity="0.1"/>
</linearGradient>
<linearGradient id="paint15_linear_2120_98" x1="2115" y1="-175.504" x2="2115" y2="134.593" gradientUnits="userSpaceOnUse">
<stop offset="0.548077" stop-color="#F8F9ED"/>
<stop offset="1" stop-color="#F8F9ED" stop-opacity="0.1"/>
</linearGradient>
<linearGradient id="paint16_linear_2120_98" x1="2115" y1="-175.504" x2="2115" y2="134.593" gradientUnits="userSpaceOnUse">
<stop offset="0.548077" stop-color="#F8F9ED"/>
<stop offset="1" stop-color="#F8F9ED" stop-opacity="0.1"/>
</linearGradient>
<linearGradient id="paint17_linear_2120_98" x1="2115" y1="-175.504" x2="2115" y2="134.593" gradientUnits="userSpaceOnUse">
<stop offset="0.548077" stop-color="#F8F9ED"/>
<stop offset="1" stop-color="#F8F9ED" stop-opacity="0.1"/>
</linearGradient>
<linearGradient id="paint18_linear_2120_98" x1="2115" y1="-175.504" x2="2115" y2="134.593" gradientUnits="userSpaceOnUse">
<stop offset="0.548077" stop-color="#F8F9ED"/>
<stop offset="1" stop-color="#F8F9ED" stop-opacity="0.1"/>
</linearGradient>
<linearGradient id="paint19_linear_2120_98" x1="2115" y1="-175.504" x2="2115" y2="134.593" gradientUnits="userSpaceOnUse">
<stop offset="0.548077" stop-color="#F8F9ED"/>
<stop offset="1" stop-color="#F8F9ED" stop-opacity="0.1"/>
</linearGradient>
<linearGradient id="paint20_linear_2120_98" x1="2115" y1="-175.504" x2="2115" y2="134.593" gradientUnits="userSpaceOnUse">
<stop offset="0.548077" stop-color="#F8F9ED"/>
<stop offset="1" stop-color="#F8F9ED" stop-opacity="0.1"/>
</linearGradient>
<linearGradient id="paint21_linear_2120_98" x1="2115" y1="-175.504" x2="2115" y2="134.593" gradientUnits="userSpaceOnUse">
<stop offset="0.548077" stop-color="#F8F9ED"/>
<stop offset="1" stop-color="#F8F9ED" stop-opacity="0.1"/>
</linearGradient>
<linearGradient id="paint22_linear_2120_98" x1="2115" y1="-175.504" x2="2115" y2="134.593" gradientUnits="userSpaceOnUse">
<stop offset="0.548077" stop-color="#F8F9ED"/>
<stop offset="1" stop-color="#F8F9ED" stop-opacity="0.1"/>
</linearGradient>
<linearGradient id="paint23_linear_2120_98" x1="2115" y1="-175.504" x2="2115" y2="134.593" gradientUnits="userSpaceOnUse">
<stop offset="0.548077" stop-color="#F8F9ED"/>
<stop offset="1" stop-color="#F8F9ED" stop-opacity="0.1"/>
</linearGradient>
<linearGradient id="paint24_linear_2120_98" x1="2115" y1="-175.504" x2="2115" y2="134.593" gradientUnits="userSpaceOnUse">
<stop offset="0.548077" stop-color="#F8F9ED"/>
<stop offset="1" stop-color="#F8F9ED" stop-opacity="0.1"/>
</linearGradient>
<linearGradient id="paint25_linear_2120_98" x1="2115" y1="-175.504" x2="2115" y2="134.593" gradientUnits="userSpaceOnUse">
<stop offset="0.548077" stop-color="#F8F9ED"/>
<stop offset="1" stop-color="#F8F9ED" stop-opacity="0.1"/>
</linearGradient>
<linearGradient id="paint26_linear_2120_98" x1="2115" y1="-175.504" x2="2115" y2="134.593" gradientUnits="userSpaceOnUse">
<stop offset="0.548077" stop-color="#F8F9ED"/>
<stop offset="1" stop-color="#F8F9ED" stop-opacity="0.1"/>
</linearGradient>
<linearGradient id="paint27_linear_2120_98" x1="2115" y1="-175.504" x2="2115" y2="134.593" gradientUnits="userSpaceOnUse">
<stop offset="0.548077" stop-color="#F8F9ED"/>
<stop offset="1" stop-color="#F8F9ED" stop-opacity="0.1"/>
</linearGradient>
<linearGradient id="paint28_linear_2120_98" x1="2115" y1="-175.504" x2="2115" y2="134.593" gradientUnits="userSpaceOnUse">
<stop offset="0.548077" stop-color="#F8F9ED"/>
<stop offset="1" stop-color="#F8F9ED" stop-opacity="0.1"/>
</linearGradient>
<linearGradient id="paint29_linear_2120_98" x1="2115" y1="-175.504" x2="2115" y2="134.593" gradientUnits="userSpaceOnUse">
<stop offset="0.548077" stop-color="#F8F9ED"/>
<stop offset="1" stop-color="#F8F9ED" stop-opacity="0.1"/>
</linearGradient>
<linearGradient id="paint30_linear_2120_98" x1="2115" y1="-175.504" x2="2115" y2="134.593" gradientUnits="userSpaceOnUse">
<stop offset="0.548077" stop-color="#F8F9ED"/>
<stop offset="1" stop-color="#F8F9ED" stop-opacity="0.1"/>
</linearGradient>
<linearGradient id="paint31_linear_2120_98" x1="2115" y1="-175.504" x2="2115" y2="134.593" gradientUnits="userSpaceOnUse">
<stop offset="0.548077" stop-color="#F8F9ED"/>
<stop offset="1" stop-color="#F8F9ED" stop-opacity="0.1"/>
</linearGradient>
<linearGradient id="paint32_linear_2120_98" x1="2115" y1="-175.504" x2="2115" y2="134.593" gradientUnits="userSpaceOnUse">
<stop offset="0.548077" stop-color="#F8F9ED"/>
<stop offset="1" stop-color="#F8F9ED" stop-opacity="0.1"/>
</linearGradient>
<linearGradient id="paint33_linear_2120_98" x1="2115" y1="-175.504" x2="2115" y2="134.593" gradientUnits="userSpaceOnUse">
<stop offset="0.548077" stop-color="#F8F9ED"/>
<stop offset="1" stop-color="#F8F9ED" stop-opacity="0.1"/>
</linearGradient>
<linearGradient id="paint34_linear_2120_98" x1="2115" y1="-175.504" x2="2115" y2="134.593" gradientUnits="userSpaceOnUse">
<stop offset="0.548077" stop-color="#F8F9ED"/>
<stop offset="1" stop-color="#F8F9ED" stop-opacity="0.1"/>
</linearGradient>
<linearGradient id="paint35_linear_2120_98" x1="2115" y1="-175.504" x2="2115" y2="134.593" gradientUnits="userSpaceOnUse">
<stop offset="0.548077" stop-color="#F8F9ED"/>
<stop offset="1" stop-color="#F8F9ED" stop-opacity="0.1"/>
</linearGradient>
<linearGradient id="paint36_linear_2120_98" x1="2115" y1="-175.504" x2="2115" y2="134.593" gradientUnits="userSpaceOnUse">
<stop offset="0.548077" stop-color="#F8F9ED"/>
<stop offset="1" stop-color="#F8F9ED" stop-opacity="0.1"/>
</linearGradient>
<linearGradient id="paint37_linear_2120_98" x1="2115" y1="-175.504" x2="2115" y2="134.593" gradientUnits="userSpaceOnUse">
<stop offset="0.548077" stop-color="#F8F9ED"/>
<stop offset="1" stop-color="#F8F9ED" stop-opacity="0.1"/>
</linearGradient>
<linearGradient id="paint38_linear_2120_98" x1="2115" y1="-175.504" x2="2115" y2="134.593" gradientUnits="userSpaceOnUse">
<stop offset="0.548077" stop-color="#F8F9ED"/>
<stop offset="1" stop-color="#F8F9ED" stop-opacity="0.1"/>
</linearGradient>
<linearGradient id="paint39_linear_2120_98" x1="2115" y1="-175.504" x2="2115" y2="134.593" gradientUnits="userSpaceOnUse">
<stop offset="0.548077" stop-color="#F8F9ED"/>
<stop offset="1" stop-color="#F8F9ED" stop-opacity="0.1"/>
</linearGradient>
<linearGradient id="paint40_linear_2120_98" x1="2115" y1="-175.504" x2="2115" y2="134.593" gradientUnits="userSpaceOnUse">
<stop offset="0.548077" stop-color="#F8F9ED"/>
<stop offset="1" stop-color="#F8F9ED" stop-opacity="0.1"/>
</linearGradient>
<linearGradient id="paint41_linear_2120_98" x1="2115" y1="-175.504" x2="2115" y2="134.593" gradientUnits="userSpaceOnUse">
<stop offset="0.548077" stop-color="#F8F9ED"/>
<stop offset="1" stop-color="#F8F9ED" stop-opacity="0.1"/>
</linearGradient>
<linearGradient id="paint42_linear_2120_98" x1="2115" y1="-175.504" x2="2115" y2="134.593" gradientUnits="userSpaceOnUse">
<stop offset="0.548077" stop-color="#F8F9ED"/>
<stop offset="1" stop-color="#F8F9ED" stop-opacity="0.1"/>
</linearGradient>
<linearGradient id="paint43_linear_2120_98" x1="2115" y1="-175.504" x2="2115" y2="134.593" gradientUnits="userSpaceOnUse">
<stop offset="0.548077" stop-color="#F8F9ED"/>
<stop offset="1" stop-color="#F8F9ED" stop-opacity="0.1"/>
</linearGradient>
<linearGradient id="paint44_linear_2120_98" x1="2115" y1="-175.504" x2="2115" y2="134.593" gradientUnits="userSpaceOnUse">
<stop offset="0.548077" stop-color="#F8F9ED"/>
<stop offset="1" stop-color="#F8F9ED" stop-opacity="0.1"/>
</linearGradient>
<linearGradient id="paint45_linear_2120_98" x1="2115" y1="-175.504" x2="2115" y2="134.593" gradientUnits="userSpaceOnUse">
<stop offset="0.548077" stop-color="#F8F9ED"/>
<stop offset="1" stop-color="#F8F9ED" stop-opacity="0.1"/>
</linearGradient>
</defs>
</svg>
