<svg width="943" height="117" viewBox="0 0 943 117" fill="none" xmlns="http://www.w3.org/2000/svg">
<path fill-rule="evenodd" clip-rule="evenodd" d="M942.929 20L926.929 4H902.929H878.929L863 20V60.5V101L878.929 117H902.929H926.929L942.929 101V60.5L942.929 20ZM905 76.75H900.929V60.5V44.25H902.965H905V60.5V76.75Z" fill="url(#paint0_linear_2103_70)"/>
<path d="M778 4V117H816V74.5H820V117H858V4H820V47.5H816V4H778Z" fill="url(#paint1_linear_2103_70)"/>
<path d="M778 4V117H816V74.5H820V117H858V4H820V47.5H816V4H778Z" fill="url(#paint2_linear_2103_70)"/>
<path fill-rule="evenodd" clip-rule="evenodd" d="M674.929 20L658.929 4H634.929H610.929L595 20V60.5V101L610.929 117H634.929H658.929L674.929 101V60.5L674.929 20ZM637 76.75H632.929V60.5V44.25H634.965H637V60.5V76.75Z" fill="url(#paint3_linear_2103_70)"/>
<path d="M680 4V117H721.5V87L743 117H773V87L753 58L773 34V4H743L721.5 28.5V4H680Z" fill="url(#paint4_linear_2103_70)"/>
<path d="M589.5 113V0H531L514.5 16V81.5H510V113H547.5V42.5H551.5V113H589.5Z" fill="url(#paint5_linear_2103_70)"/>
<path d="M384 21.625V38.5H379.5V21.625H384Z" fill="url(#paint6_linear_2103_70)"/>
<path fill-rule="evenodd" clip-rule="evenodd" d="M420 16L404 0H340V113H404L420 97V91.375V85.75V74.5L404 56.5L420 38.5V27.25V21.625V16ZM384 21.625V38.5H379.5V21.625H384ZM384 91.375V74.5H379.5V91.375H384Z" fill="url(#paint7_linear_2103_70)"/>
<path d="M250 0H170V40H191V113H229V40H250V0Z" fill="url(#paint8_linear_2103_70)"/>
<path d="M85 0V113H123V42.5H127V113H165V0H85Z" fill="url(#paint9_linear_2103_70)"/>
<path fill-rule="evenodd" clip-rule="evenodd" d="M79.9292 16L63.9292 0H39.9292H15.9292L0 16V56.5V97L15.9292 113H39.9292H63.9292L79.9292 97V56.5L79.9292 16ZM42 72.75H37.9292V56.5V40.25H39.9646H42V56.5V72.75Z" fill="url(#paint10_linear_2103_70)"/>
<path fill-rule="evenodd" clip-rule="evenodd" d="M504.929 16L488.929 0H464.929H440.929L425 16V56.5V97L440.929 113H464.929H488.929L504.929 97V56.5L504.929 16ZM467 72.75H462.929V56.5V40.25H464.965H467V56.5V72.75Z" fill="url(#paint11_linear_2103_70)"/>
<path fill-rule="evenodd" clip-rule="evenodd" d="M334.929 16L318.929 0H294.929H270.929L255 16V56.5V97L270.929 113H294.929H318.929L334.929 97V56.5L334.929 16ZM297 72.75H292.929V56.5V40.25H294.965H297V56.5V72.75Z" fill="url(#paint12_linear_2103_70)"/>
<defs>
<linearGradient id="paint0_linear_2103_70" x1="902.965" y1="4" x2="902.965" y2="117" gradientUnits="userSpaceOnUse">
<stop stop-color="#F8F9ED"/>
<stop offset="1" stop-color="#F8F9ED" stop-opacity="0.1"/>
</linearGradient>
<linearGradient id="paint1_linear_2103_70" x1="818" y1="4" x2="818" y2="117" gradientUnits="userSpaceOnUse">
<stop stop-color="#F8F9ED"/>
<stop offset="1" stop-color="#F8F9ED" stop-opacity="0.1"/>
</linearGradient>
<linearGradient id="paint2_linear_2103_70" x1="818" y1="4" x2="818" y2="117" gradientUnits="userSpaceOnUse">
<stop stop-color="#F8F9ED"/>
<stop offset="1" stop-color="#F8F9ED" stop-opacity="0.1"/>
</linearGradient>
<linearGradient id="paint3_linear_2103_70" x1="634.965" y1="4" x2="634.965" y2="117" gradientUnits="userSpaceOnUse">
<stop stop-color="#F8F9ED"/>
<stop offset="1" stop-color="#F8F9ED" stop-opacity="0.1"/>
</linearGradient>
<linearGradient id="paint4_linear_2103_70" x1="726.5" y1="4" x2="726.5" y2="117" gradientUnits="userSpaceOnUse">
<stop stop-color="#F8F9ED"/>
<stop offset="1" stop-color="#F8F9ED" stop-opacity="0.1"/>
</linearGradient>
<linearGradient id="paint5_linear_2103_70" x1="549.75" y1="0" x2="549.75" y2="113" gradientUnits="userSpaceOnUse">
<stop stop-color="#F8F9ED"/>
<stop offset="1" stop-color="#F8F9ED" stop-opacity="0.1"/>
</linearGradient>
<linearGradient id="paint6_linear_2103_70" x1="380" y1="0" x2="380" y2="113" gradientUnits="userSpaceOnUse">
<stop stop-color="#F8F9ED"/>
<stop offset="1" stop-color="#F8F9ED" stop-opacity="0.1"/>
</linearGradient>
<linearGradient id="paint7_linear_2103_70" x1="380" y1="0" x2="380" y2="113" gradientUnits="userSpaceOnUse">
<stop stop-color="#F8F9ED"/>
<stop offset="1" stop-color="#F8F9ED" stop-opacity="0.1"/>
</linearGradient>
<linearGradient id="paint8_linear_2103_70" x1="210" y1="0" x2="210" y2="113" gradientUnits="userSpaceOnUse">
<stop stop-color="#F8F9ED"/>
<stop offset="1" stop-color="#F8F9ED" stop-opacity="0.1"/>
</linearGradient>
<linearGradient id="paint9_linear_2103_70" x1="125" y1="0" x2="125" y2="113" gradientUnits="userSpaceOnUse">
<stop stop-color="#F8F9ED"/>
<stop offset="1" stop-color="#F8F9ED" stop-opacity="0.1"/>
</linearGradient>
<linearGradient id="paint10_linear_2103_70" x1="39.9646" y1="0" x2="39.9646" y2="113" gradientUnits="userSpaceOnUse">
<stop stop-color="#F8F9ED"/>
<stop offset="1" stop-color="#F8F9ED" stop-opacity="0.1"/>
</linearGradient>
<linearGradient id="paint11_linear_2103_70" x1="464.965" y1="0" x2="464.965" y2="113" gradientUnits="userSpaceOnUse">
<stop stop-color="#F8F9ED"/>
<stop offset="1" stop-color="#F8F9ED" stop-opacity="0.1"/>
</linearGradient>
<linearGradient id="paint12_linear_2103_70" x1="294.965" y1="0" x2="294.965" y2="113" gradientUnits="userSpaceOnUse">
<stop stop-color="#F8F9ED"/>
<stop offset="1" stop-color="#F8F9ED" stop-opacity="0.1"/>
</linearGradient>
</defs>
</svg>
