<svg width="1506" height="413" viewBox="0 0 1506 413" fill="none" xmlns="http://www.w3.org/2000/svg">
<path d="M927 82.5L911 66.5V0H949V57H951.5L953 55V0H991V113H953V82.5H927Z" fill="url(#paint0_linear_2122_108)" fill-opacity="0.45"/>
<path d="M906 40V113H868V40H906Z" fill="url(#paint1_linear_2122_108)" fill-opacity="0.45"/>
<path d="M906 0V34.5H868V0H906Z" fill="url(#paint2_linear_2122_108)" fill-opacity="0.45"/>
<path d="M863 0H783V113H821V40H863V0Z" fill="url(#paint3_linear_2122_108)" fill-opacity="0.45"/>
<path fill-rule="evenodd" clip-rule="evenodd" d="M777.929 16L761.929 0H713.929L698 16V97L713.929 113H761.929L777.929 97V16ZM740 72.75H735.929V40.25H740V72.75Z" fill="url(#paint4_linear_2122_108)" fill-opacity="0.45"/>
<path d="M693 113V0H634.132L617.528 16V81.5H613V113H650.736V42.5H654.761V113H693Z" fill="url(#paint5_linear_2122_108)" fill-opacity="0.45"/>
<path d="M345 0V113H425V74.5H385.5V70.5H425V42.5H385.5V38.5H425V0H345Z" fill="url(#paint6_linear_2122_108)" fill-opacity="0.45"/>
<path d="M1081 0V113H1161V74.5H1121.5V70.5H1161V42.5H1121.5V38.5H1161V0H1081Z" fill="url(#paint7_linear_2122_108)" fill-opacity="0.45"/>
<path d="M430 0V113H471.5V83L493 113H523V83L503 54L523 30V0H493L471.5 24.5V0H430Z" fill="url(#paint8_linear_2122_108)" fill-opacity="0.45"/>
<path d="M996 0V113H1034V70.5H1038V113H1076V0H1038V43.5H1034V0H996Z" fill="url(#paint9_linear_2122_108)" fill-opacity="0.45"/>
<path fill-rule="evenodd" clip-rule="evenodd" d="M607.929 16L591.929 0H543.929L528 16V97L543.929 113H591.929L607.929 97V16ZM570 72.75H565.929V40.25H570V72.75Z" fill="url(#paint10_linear_2122_108)" fill-opacity="0.45"/>
<path fill-rule="evenodd" clip-rule="evenodd" d="M273 280L289 296V346.5L273 362.5H247V393H209V280H273ZM247 337H251V313H248.5L247 315V337Z" fill="url(#paint11_linear_2122_108)" fill-opacity="0.45"/>
<path d="M124 280V393H162V322.5H166V393H204V280H124Z" fill="url(#paint12_linear_2122_108)" fill-opacity="0.45"/>
<path d="M719 393V363H749L748 401.5L734.082 412.933C734.049 412.96 734 412.936 734 412.894V393H719Z" fill="url(#paint13_linear_2122_108)" fill-opacity="0.45"/>
<path d="M714 280V393H686V361L662 393H634V280H662V312L686 280H714Z" fill="url(#paint14_linear_2122_108)" fill-opacity="0.45"/>
<path d="M395 362.5L379 346.5V280H417V337H419.5L421 335V280H459V393H421V362.5H395Z" fill="url(#paint15_linear_2122_108)" fill-opacity="0.45"/>
<path d="M549 280V393H587V350.5H591V393H629V280H591V323.5H587V280H549Z" fill="url(#paint16_linear_2122_108)" fill-opacity="0.45"/>
<path d="M374 280V393H346V361L322 393H294V280H322V312L346 280H374Z" fill="url(#paint17_linear_2122_108)" fill-opacity="0.45"/>
<path d="M544 280V393H516V361L492 393H464V280H492V312L516 280H544Z" fill="url(#paint18_linear_2122_108)" fill-opacity="0.45"/>
<path d="M918 320V393H880V320H918Z" fill="url(#paint19_linear_2122_108)" fill-opacity="0.45"/>
<path d="M918 280V314.5H880V280H918Z" fill="url(#paint20_linear_2122_108)" fill-opacity="0.45"/>
<path d="M1041 280V393H1121V354.5H1081.5V350.5H1121V322.5H1081.5V318.5H1121V280H1041Z" fill="url(#paint21_linear_2122_108)" fill-opacity="0.45"/>
<path d="M1211 280V393H1249V350.5H1253V393H1291V280H1253V323.5H1249V280H1211Z" fill="url(#paint22_linear_2122_108)" fill-opacity="0.45"/>
<path d="M1126 280V393H1164V350.5H1168V393H1206V280H1168V323.5H1164V280H1126Z" fill="url(#paint23_linear_2122_108)" fill-opacity="0.45"/>
<path fill-rule="evenodd" clip-rule="evenodd" d="M1382 280V393H1340.5V371L1320 393H1296V363L1308 350L1296 337V296L1312 280H1382ZM1340.5 328.5H1337V312.5H1340.5V328.5Z" fill="url(#paint24_linear_2122_108)" fill-opacity="0.45"/>
<path fill-rule="evenodd" clip-rule="evenodd" d="M859 280L875 296V346.5L859 362.5H833V393H795V280H859ZM833 337H837V313H834.5L833 315V337Z" fill="url(#paint25_linear_2122_108)" fill-opacity="0.45"/>
<path d="M923 393V280H958.197V350.5H961.902V280H997.098V350.5H1000.8V280H1036V393H923Z" fill="url(#paint26_linear_2122_108)" fill-opacity="0.45"/>
<path d="M942 204V174H972V204H942Z" fill="url(#paint27_linear_2122_108)" fill-opacity="0.45"/>
<path fill-rule="evenodd" clip-rule="evenodd" d="M942 252.5V222.5H972V252.5H942Z" fill="url(#paint28_linear_2122_108)" fill-opacity="0.45"/>
<path fill-rule="evenodd" clip-rule="evenodd" d="M937 140V253H895.5V231L875 253H851V223L863 210L851 197V156L867 140H937ZM895.5 188.5H892V172.5H895.5V188.5Z" fill="url(#paint29_linear_2122_108)" fill-opacity="0.45"/>
<path fill-rule="evenodd" clip-rule="evenodd" d="M319 140L335 156V206.5L319 222.5H293V253H255V140H319ZM293 197H297V173H294.5L293 175V197Z" fill="url(#paint30_linear_2122_108)" fill-opacity="0.45"/>
<path fill-rule="evenodd" clip-rule="evenodd" d="M250 237L234 253H170V140H250V166.5H208V170.5H234L250 186.5V237ZM208 196H212V220H209.5L208 218V196Z" fill="url(#paint31_linear_2122_108)" fill-opacity="0.45"/>
<path fill-rule="evenodd" clip-rule="evenodd" d="M127 253H165V156L149 140H101L85 156V253H123V222.5H127V253ZM127 197H123V175L124.5 173H127V197Z" fill="url(#paint32_linear_2122_108)" fill-opacity="0.45"/>
<path d="M766 140V253H804V210.5H808V253H846V140H808V183.5H804V140H766Z" fill="url(#paint33_linear_2122_108)" fill-opacity="0.45"/>
<path d="M511 140V253H549V210.5H553V253H591V140H553V183.5H549V140H511Z" fill="url(#paint34_linear_2122_108)" fill-opacity="0.45"/>
<path d="M681 140V253H719V210.5H723V253H761V140H723V183.5H719V140H681Z" fill="url(#paint35_linear_2122_108)" fill-opacity="0.45"/>
<path d="M596 140V253H676V214.5H636.5V210.5H676V182.5H636.5V178.5H676V140H596Z" fill="url(#paint36_linear_2122_108)" fill-opacity="0.45"/>
<path d="M340 225.56V253H405L420.5 237.5V140H382.035V195L380.5 197H378V140H340V206.5L356 222.5H382.035L379.5 225.56H340Z" fill="url(#paint37_linear_2122_108)" fill-opacity="0.45"/>
<path fill-rule="evenodd" clip-rule="evenodd" d="M505.929 156L489.929 140H426V253H489.929L505.929 237V156ZM468 212.75H463.929V180.25H468V212.75Z" fill="url(#paint38_linear_2122_108)" fill-opacity="0.45"/>
<path d="M0 253V214.5H39.5V210.5H0V182.5H39.5V178.5H0V140H64L80 156V178.5L64 196.5L80 214.5V237L64 253H0Z" fill="url(#paint39_linear_2122_108)" fill-opacity="0.45"/>
<path d="M1208 142V255H1249.5V225L1271 255H1301V225L1281 196L1301 172V142H1271L1249.5 166.5V142H1208Z" fill="url(#paint40_linear_2122_108)" fill-opacity="0.45"/>
<path d="M1476 253V223H1506L1505 261.5L1491.08 272.933C1491.05 272.96 1491 272.936 1491 272.894V253H1476Z" fill="url(#paint41_linear_2122_108)" fill-opacity="0.45"/>
<path d="M1471 140V253H1443V221L1419 253H1391V140H1419V172L1443 140H1471Z" fill="url(#paint42_linear_2122_108)" fill-opacity="0.45"/>
<path d="M1386 142H1306V182H1327V255H1365V182H1386V142Z" fill="url(#paint43_linear_2122_108)" fill-opacity="0.45"/>
<path d="M1018 166.518L1032.16 146.5H1051.19V140H1084.81V146.5H1103.84L1118 166.518V226.571L1103.84 246.5H1084.81V253H1051.19V246.5H1032.16L1018 226.571V166.518Z" fill="url(#paint44_linear_2122_108)" fill-opacity="0.45"/>
<path fill-rule="evenodd" clip-rule="evenodd" d="M1165 253H1203V156L1187 140H1139L1123 156V253H1161V222.5H1165V253ZM1165 197H1161V175L1162.5 173H1165V197Z" fill="url(#paint45_linear_2122_108)" fill-opacity="0.45"/>
<path d="M927 82.5L911 66.5V0H949V57H951.5L953 55V0H991V113H953V82.5H927Z" fill="url(#paint46_linear_2122_108)" fill-opacity="0.45"/>
<path d="M906 40V113H868V40H906Z" fill="url(#paint47_linear_2122_108)" fill-opacity="0.45"/>
<path d="M906 0V34.5H868V0H906Z" fill="url(#paint48_linear_2122_108)" fill-opacity="0.45"/>
<path d="M863 0H783V113H821V40H863V0Z" fill="url(#paint49_linear_2122_108)" fill-opacity="0.45"/>
<path fill-rule="evenodd" clip-rule="evenodd" d="M777.929 16L761.929 0H713.929L698 16V97L713.929 113H761.929L777.929 97V16ZM740 72.75H735.929V40.25H740V72.75Z" fill="url(#paint50_linear_2122_108)" fill-opacity="0.45"/>
<path d="M693 113V0H634.132L617.528 16V81.5H613V113H650.736V42.5H654.761V113H693Z" fill="url(#paint51_linear_2122_108)" fill-opacity="0.45"/>
<path d="M345 0V113H425V74.5H385.5V70.5H425V42.5H385.5V38.5H425V0H345Z" fill="url(#paint52_linear_2122_108)" fill-opacity="0.45"/>
<path d="M1081 0V113H1161V74.5H1121.5V70.5H1161V42.5H1121.5V38.5H1161V0H1081Z" fill="url(#paint53_linear_2122_108)" fill-opacity="0.45"/>
<path d="M430 0V113H471.5V83L493 113H523V83L503 54L523 30V0H493L471.5 24.5V0H430Z" fill="url(#paint54_linear_2122_108)" fill-opacity="0.45"/>
<path d="M996 0V113H1034V70.5H1038V113H1076V0H1038V43.5H1034V0H996Z" fill="url(#paint55_linear_2122_108)" fill-opacity="0.45"/>
<path fill-rule="evenodd" clip-rule="evenodd" d="M607.929 16L591.929 0H543.929L528 16V97L543.929 113H591.929L607.929 97V16ZM570 72.75H565.929V40.25H570V72.75Z" fill="url(#paint56_linear_2122_108)" fill-opacity="0.45"/>
<path fill-rule="evenodd" clip-rule="evenodd" d="M273 280L289 296V346.5L273 362.5H247V393H209V280H273ZM247 337H251V313H248.5L247 315V337Z" fill="url(#paint57_linear_2122_108)" fill-opacity="0.45"/>
<path d="M124 280V393H162V322.5H166V393H204V280H124Z" fill="url(#paint58_linear_2122_108)" fill-opacity="0.45"/>
<path d="M719 393V363H749L748 401.5L734.082 412.933C734.049 412.96 734 412.936 734 412.894V393H719Z" fill="url(#paint59_linear_2122_108)" fill-opacity="0.45"/>
<path d="M714 280V393H686V361L662 393H634V280H662V312L686 280H714Z" fill="url(#paint60_linear_2122_108)" fill-opacity="0.45"/>
<path d="M395 362.5L379 346.5V280H417V337H419.5L421 335V280H459V393H421V362.5H395Z" fill="url(#paint61_linear_2122_108)" fill-opacity="0.45"/>
<path d="M549 280V393H587V350.5H591V393H629V280H591V323.5H587V280H549Z" fill="url(#paint62_linear_2122_108)" fill-opacity="0.45"/>
<path d="M374 280V393H346V361L322 393H294V280H322V312L346 280H374Z" fill="url(#paint63_linear_2122_108)" fill-opacity="0.45"/>
<path d="M544 280V393H516V361L492 393H464V280H492V312L516 280H544Z" fill="url(#paint64_linear_2122_108)" fill-opacity="0.45"/>
<path d="M918 320V393H880V320H918Z" fill="url(#paint65_linear_2122_108)" fill-opacity="0.45"/>
<path d="M918 280V314.5H880V280H918Z" fill="url(#paint66_linear_2122_108)" fill-opacity="0.45"/>
<path d="M1041 280V393H1121V354.5H1081.5V350.5H1121V322.5H1081.5V318.5H1121V280H1041Z" fill="url(#paint67_linear_2122_108)" fill-opacity="0.45"/>
<path d="M1211 280V393H1249V350.5H1253V393H1291V280H1253V323.5H1249V280H1211Z" fill="url(#paint68_linear_2122_108)" fill-opacity="0.45"/>
<path d="M1126 280V393H1164V350.5H1168V393H1206V280H1168V323.5H1164V280H1126Z" fill="url(#paint69_linear_2122_108)" fill-opacity="0.45"/>
<path fill-rule="evenodd" clip-rule="evenodd" d="M1382 280V393H1340.5V371L1320 393H1296V363L1308 350L1296 337V296L1312 280H1382ZM1340.5 328.5H1337V312.5H1340.5V328.5Z" fill="url(#paint70_linear_2122_108)" fill-opacity="0.45"/>
<path fill-rule="evenodd" clip-rule="evenodd" d="M859 280L875 296V346.5L859 362.5H833V393H795V280H859ZM833 337H837V313H834.5L833 315V337Z" fill="url(#paint71_linear_2122_108)" fill-opacity="0.45"/>
<path d="M923 393V280H958.197V350.5H961.902V280H997.098V350.5H1000.8V280H1036V393H923Z" fill="url(#paint72_linear_2122_108)" fill-opacity="0.45"/>
<path d="M942 204V174H972V204H942Z" fill="url(#paint73_linear_2122_108)" fill-opacity="0.45"/>
<path fill-rule="evenodd" clip-rule="evenodd" d="M942 252.5V222.5H972V252.5H942Z" fill="url(#paint74_linear_2122_108)" fill-opacity="0.45"/>
<path fill-rule="evenodd" clip-rule="evenodd" d="M937 140V253H895.5V231L875 253H851V223L863 210L851 197V156L867 140H937ZM895.5 188.5H892V172.5H895.5V188.5Z" fill="url(#paint75_linear_2122_108)" fill-opacity="0.45"/>
<path fill-rule="evenodd" clip-rule="evenodd" d="M319 140L335 156V206.5L319 222.5H293V253H255V140H319ZM293 197H297V173H294.5L293 175V197Z" fill="url(#paint76_linear_2122_108)" fill-opacity="0.45"/>
<path fill-rule="evenodd" clip-rule="evenodd" d="M250 237L234 253H170V140H250V166.5H208V170.5H234L250 186.5V237ZM208 196H212V220H209.5L208 218V196Z" fill="url(#paint77_linear_2122_108)" fill-opacity="0.45"/>
<path fill-rule="evenodd" clip-rule="evenodd" d="M127 253H165V156L149 140H101L85 156V253H123V222.5H127V253ZM127 197H123V175L124.5 173H127V197Z" fill="url(#paint78_linear_2122_108)" fill-opacity="0.45"/>
<path d="M766 140V253H804V210.5H808V253H846V140H808V183.5H804V140H766Z" fill="url(#paint79_linear_2122_108)" fill-opacity="0.45"/>
<path d="M511 140V253H549V210.5H553V253H591V140H553V183.5H549V140H511Z" fill="url(#paint80_linear_2122_108)" fill-opacity="0.45"/>
<path d="M681 140V253H719V210.5H723V253H761V140H723V183.5H719V140H681Z" fill="url(#paint81_linear_2122_108)" fill-opacity="0.45"/>
<path d="M596 140V253H676V214.5H636.5V210.5H676V182.5H636.5V178.5H676V140H596Z" fill="url(#paint82_linear_2122_108)" fill-opacity="0.45"/>
<path d="M340 225.56V253H405L420.5 237.5V140H382.035V195L380.5 197H378V140H340V206.5L356 222.5H382.035L379.5 225.56H340Z" fill="url(#paint83_linear_2122_108)" fill-opacity="0.45"/>
<path fill-rule="evenodd" clip-rule="evenodd" d="M505.929 156L489.929 140H426V253H489.929L505.929 237V156ZM468 212.75H463.929V180.25H468V212.75Z" fill="url(#paint84_linear_2122_108)" fill-opacity="0.45"/>
<path d="M0 253V214.5H39.5V210.5H0V182.5H39.5V178.5H0V140H64L80 156V178.5L64 196.5L80 214.5V237L64 253H0Z" fill="url(#paint85_linear_2122_108)" fill-opacity="0.45"/>
<path d="M1208 142V255H1249.5V225L1271 255H1301V225L1281 196L1301 172V142H1271L1249.5 166.5V142H1208Z" fill="url(#paint86_linear_2122_108)" fill-opacity="0.45"/>
<path d="M1476 253V223H1506L1505 261.5L1491.08 272.933C1491.05 272.96 1491 272.936 1491 272.894V253H1476Z" fill="url(#paint87_linear_2122_108)" fill-opacity="0.45"/>
<path d="M1471 140V253H1443V221L1419 253H1391V140H1419V172L1443 140H1471Z" fill="url(#paint88_linear_2122_108)" fill-opacity="0.45"/>
<path d="M1386 142H1306V182H1327V255H1365V182H1386V142Z" fill="url(#paint89_linear_2122_108)" fill-opacity="0.45"/>
<path d="M1018 166.518L1032.16 146.5H1051.19V140H1084.81V146.5H1103.84L1118 166.518V226.571L1103.84 246.5H1084.81V253H1051.19V246.5H1032.16L1018 226.571V166.518Z" fill="url(#paint90_linear_2122_108)" fill-opacity="0.45"/>
<path fill-rule="evenodd" clip-rule="evenodd" d="M1165 253H1203V156L1187 140H1139L1123 156V253H1161V222.5H1165V253ZM1165 197H1161V175L1162.5 173H1165V197Z" fill="url(#paint91_linear_2122_108)" fill-opacity="0.45"/>
<defs>
<linearGradient id="paint0_linear_2122_108" x1="753" y1="0" x2="753" y2="412.944" gradientUnits="userSpaceOnUse">
<stop stop-color="#F8F9ED"/>
<stop offset="1" stop-color="#F8F9ED" stop-opacity="0.1"/>
</linearGradient>
<linearGradient id="paint1_linear_2122_108" x1="753" y1="0" x2="753" y2="412.944" gradientUnits="userSpaceOnUse">
<stop stop-color="#F8F9ED"/>
<stop offset="1" stop-color="#F8F9ED" stop-opacity="0.1"/>
</linearGradient>
<linearGradient id="paint2_linear_2122_108" x1="753" y1="0" x2="753" y2="412.944" gradientUnits="userSpaceOnUse">
<stop stop-color="#F8F9ED"/>
<stop offset="1" stop-color="#F8F9ED" stop-opacity="0.1"/>
</linearGradient>
<linearGradient id="paint3_linear_2122_108" x1="753" y1="0" x2="753" y2="412.944" gradientUnits="userSpaceOnUse">
<stop stop-color="#F8F9ED"/>
<stop offset="1" stop-color="#F8F9ED" stop-opacity="0.1"/>
</linearGradient>
<linearGradient id="paint4_linear_2122_108" x1="753" y1="0" x2="753" y2="412.944" gradientUnits="userSpaceOnUse">
<stop stop-color="#F8F9ED"/>
<stop offset="1" stop-color="#F8F9ED" stop-opacity="0.1"/>
</linearGradient>
<linearGradient id="paint5_linear_2122_108" x1="753" y1="0" x2="753" y2="412.944" gradientUnits="userSpaceOnUse">
<stop stop-color="#F8F9ED"/>
<stop offset="1" stop-color="#F8F9ED" stop-opacity="0.1"/>
</linearGradient>
<linearGradient id="paint6_linear_2122_108" x1="753" y1="0" x2="753" y2="412.944" gradientUnits="userSpaceOnUse">
<stop stop-color="#F8F9ED"/>
<stop offset="1" stop-color="#F8F9ED" stop-opacity="0.1"/>
</linearGradient>
<linearGradient id="paint7_linear_2122_108" x1="753" y1="0" x2="753" y2="412.944" gradientUnits="userSpaceOnUse">
<stop stop-color="#F8F9ED"/>
<stop offset="1" stop-color="#F8F9ED" stop-opacity="0.1"/>
</linearGradient>
<linearGradient id="paint8_linear_2122_108" x1="753" y1="0" x2="753" y2="412.944" gradientUnits="userSpaceOnUse">
<stop stop-color="#F8F9ED"/>
<stop offset="1" stop-color="#F8F9ED" stop-opacity="0.1"/>
</linearGradient>
<linearGradient id="paint9_linear_2122_108" x1="753" y1="0" x2="753" y2="412.944" gradientUnits="userSpaceOnUse">
<stop stop-color="#F8F9ED"/>
<stop offset="1" stop-color="#F8F9ED" stop-opacity="0.1"/>
</linearGradient>
<linearGradient id="paint10_linear_2122_108" x1="753" y1="0" x2="753" y2="412.944" gradientUnits="userSpaceOnUse">
<stop stop-color="#F8F9ED"/>
<stop offset="1" stop-color="#F8F9ED" stop-opacity="0.1"/>
</linearGradient>
<linearGradient id="paint11_linear_2122_108" x1="753" y1="0" x2="753" y2="412.944" gradientUnits="userSpaceOnUse">
<stop stop-color="#F8F9ED"/>
<stop offset="1" stop-color="#F8F9ED" stop-opacity="0.1"/>
</linearGradient>
<linearGradient id="paint12_linear_2122_108" x1="753" y1="0" x2="753" y2="412.944" gradientUnits="userSpaceOnUse">
<stop stop-color="#F8F9ED"/>
<stop offset="1" stop-color="#F8F9ED" stop-opacity="0.1"/>
</linearGradient>
<linearGradient id="paint13_linear_2122_108" x1="753" y1="0" x2="753" y2="412.944" gradientUnits="userSpaceOnUse">
<stop stop-color="#F8F9ED"/>
<stop offset="1" stop-color="#F8F9ED" stop-opacity="0.1"/>
</linearGradient>
<linearGradient id="paint14_linear_2122_108" x1="753" y1="0" x2="753" y2="412.944" gradientUnits="userSpaceOnUse">
<stop stop-color="#F8F9ED"/>
<stop offset="1" stop-color="#F8F9ED" stop-opacity="0.1"/>
</linearGradient>
<linearGradient id="paint15_linear_2122_108" x1="753" y1="0" x2="753" y2="412.944" gradientUnits="userSpaceOnUse">
<stop stop-color="#F8F9ED"/>
<stop offset="1" stop-color="#F8F9ED" stop-opacity="0.1"/>
</linearGradient>
<linearGradient id="paint16_linear_2122_108" x1="753" y1="0" x2="753" y2="412.944" gradientUnits="userSpaceOnUse">
<stop stop-color="#F8F9ED"/>
<stop offset="1" stop-color="#F8F9ED" stop-opacity="0.1"/>
</linearGradient>
<linearGradient id="paint17_linear_2122_108" x1="753" y1="0" x2="753" y2="412.944" gradientUnits="userSpaceOnUse">
<stop stop-color="#F8F9ED"/>
<stop offset="1" stop-color="#F8F9ED" stop-opacity="0.1"/>
</linearGradient>
<linearGradient id="paint18_linear_2122_108" x1="753" y1="0" x2="753" y2="412.944" gradientUnits="userSpaceOnUse">
<stop stop-color="#F8F9ED"/>
<stop offset="1" stop-color="#F8F9ED" stop-opacity="0.1"/>
</linearGradient>
<linearGradient id="paint19_linear_2122_108" x1="753" y1="0" x2="753" y2="412.944" gradientUnits="userSpaceOnUse">
<stop stop-color="#F8F9ED"/>
<stop offset="1" stop-color="#F8F9ED" stop-opacity="0.1"/>
</linearGradient>
<linearGradient id="paint20_linear_2122_108" x1="753" y1="0" x2="753" y2="412.944" gradientUnits="userSpaceOnUse">
<stop stop-color="#F8F9ED"/>
<stop offset="1" stop-color="#F8F9ED" stop-opacity="0.1"/>
</linearGradient>
<linearGradient id="paint21_linear_2122_108" x1="753" y1="0" x2="753" y2="412.944" gradientUnits="userSpaceOnUse">
<stop stop-color="#F8F9ED"/>
<stop offset="1" stop-color="#F8F9ED" stop-opacity="0.1"/>
</linearGradient>
<linearGradient id="paint22_linear_2122_108" x1="753" y1="0" x2="753" y2="412.944" gradientUnits="userSpaceOnUse">
<stop stop-color="#F8F9ED"/>
<stop offset="1" stop-color="#F8F9ED" stop-opacity="0.1"/>
</linearGradient>
<linearGradient id="paint23_linear_2122_108" x1="753" y1="0" x2="753" y2="412.944" gradientUnits="userSpaceOnUse">
<stop stop-color="#F8F9ED"/>
<stop offset="1" stop-color="#F8F9ED" stop-opacity="0.1"/>
</linearGradient>
<linearGradient id="paint24_linear_2122_108" x1="753" y1="0" x2="753" y2="412.944" gradientUnits="userSpaceOnUse">
<stop stop-color="#F8F9ED"/>
<stop offset="1" stop-color="#F8F9ED" stop-opacity="0.1"/>
</linearGradient>
<linearGradient id="paint25_linear_2122_108" x1="753" y1="0" x2="753" y2="412.944" gradientUnits="userSpaceOnUse">
<stop stop-color="#F8F9ED"/>
<stop offset="1" stop-color="#F8F9ED" stop-opacity="0.1"/>
</linearGradient>
<linearGradient id="paint26_linear_2122_108" x1="753" y1="0" x2="753" y2="412.944" gradientUnits="userSpaceOnUse">
<stop stop-color="#F8F9ED"/>
<stop offset="1" stop-color="#F8F9ED" stop-opacity="0.1"/>
</linearGradient>
<linearGradient id="paint27_linear_2122_108" x1="753" y1="0" x2="753" y2="412.944" gradientUnits="userSpaceOnUse">
<stop stop-color="#F8F9ED"/>
<stop offset="1" stop-color="#F8F9ED" stop-opacity="0.1"/>
</linearGradient>
<linearGradient id="paint28_linear_2122_108" x1="753" y1="0" x2="753" y2="412.944" gradientUnits="userSpaceOnUse">
<stop stop-color="#F8F9ED"/>
<stop offset="1" stop-color="#F8F9ED" stop-opacity="0.1"/>
</linearGradient>
<linearGradient id="paint29_linear_2122_108" x1="753" y1="0" x2="753" y2="412.944" gradientUnits="userSpaceOnUse">
<stop stop-color="#F8F9ED"/>
<stop offset="1" stop-color="#F8F9ED" stop-opacity="0.1"/>
</linearGradient>
<linearGradient id="paint30_linear_2122_108" x1="753" y1="0" x2="753" y2="412.944" gradientUnits="userSpaceOnUse">
<stop stop-color="#F8F9ED"/>
<stop offset="1" stop-color="#F8F9ED" stop-opacity="0.1"/>
</linearGradient>
<linearGradient id="paint31_linear_2122_108" x1="753" y1="0" x2="753" y2="412.944" gradientUnits="userSpaceOnUse">
<stop stop-color="#F8F9ED"/>
<stop offset="1" stop-color="#F8F9ED" stop-opacity="0.1"/>
</linearGradient>
<linearGradient id="paint32_linear_2122_108" x1="753" y1="0" x2="753" y2="412.944" gradientUnits="userSpaceOnUse">
<stop stop-color="#F8F9ED"/>
<stop offset="1" stop-color="#F8F9ED" stop-opacity="0.1"/>
</linearGradient>
<linearGradient id="paint33_linear_2122_108" x1="753" y1="0" x2="753" y2="412.944" gradientUnits="userSpaceOnUse">
<stop stop-color="#F8F9ED"/>
<stop offset="1" stop-color="#F8F9ED" stop-opacity="0.1"/>
</linearGradient>
<linearGradient id="paint34_linear_2122_108" x1="753" y1="0" x2="753" y2="412.944" gradientUnits="userSpaceOnUse">
<stop stop-color="#F8F9ED"/>
<stop offset="1" stop-color="#F8F9ED" stop-opacity="0.1"/>
</linearGradient>
<linearGradient id="paint35_linear_2122_108" x1="753" y1="0" x2="753" y2="412.944" gradientUnits="userSpaceOnUse">
<stop stop-color="#F8F9ED"/>
<stop offset="1" stop-color="#F8F9ED" stop-opacity="0.1"/>
</linearGradient>
<linearGradient id="paint36_linear_2122_108" x1="753" y1="0" x2="753" y2="412.944" gradientUnits="userSpaceOnUse">
<stop stop-color="#F8F9ED"/>
<stop offset="1" stop-color="#F8F9ED" stop-opacity="0.1"/>
</linearGradient>
<linearGradient id="paint37_linear_2122_108" x1="753" y1="0" x2="753" y2="412.944" gradientUnits="userSpaceOnUse">
<stop stop-color="#F8F9ED"/>
<stop offset="1" stop-color="#F8F9ED" stop-opacity="0.1"/>
</linearGradient>
<linearGradient id="paint38_linear_2122_108" x1="753" y1="0" x2="753" y2="412.944" gradientUnits="userSpaceOnUse">
<stop stop-color="#F8F9ED"/>
<stop offset="1" stop-color="#F8F9ED" stop-opacity="0.1"/>
</linearGradient>
<linearGradient id="paint39_linear_2122_108" x1="753" y1="0" x2="753" y2="412.944" gradientUnits="userSpaceOnUse">
<stop stop-color="#F8F9ED"/>
<stop offset="1" stop-color="#F8F9ED" stop-opacity="0.1"/>
</linearGradient>
<linearGradient id="paint40_linear_2122_108" x1="753" y1="0" x2="753" y2="412.944" gradientUnits="userSpaceOnUse">
<stop stop-color="#F8F9ED"/>
<stop offset="1" stop-color="#F8F9ED" stop-opacity="0.1"/>
</linearGradient>
<linearGradient id="paint41_linear_2122_108" x1="753" y1="0" x2="753" y2="412.944" gradientUnits="userSpaceOnUse">
<stop stop-color="#F8F9ED"/>
<stop offset="1" stop-color="#F8F9ED" stop-opacity="0.1"/>
</linearGradient>
<linearGradient id="paint42_linear_2122_108" x1="753" y1="0" x2="753" y2="412.944" gradientUnits="userSpaceOnUse">
<stop stop-color="#F8F9ED"/>
<stop offset="1" stop-color="#F8F9ED" stop-opacity="0.1"/>
</linearGradient>
<linearGradient id="paint43_linear_2122_108" x1="753" y1="0" x2="753" y2="412.944" gradientUnits="userSpaceOnUse">
<stop stop-color="#F8F9ED"/>
<stop offset="1" stop-color="#F8F9ED" stop-opacity="0.1"/>
</linearGradient>
<linearGradient id="paint44_linear_2122_108" x1="753" y1="0" x2="753" y2="412.944" gradientUnits="userSpaceOnUse">
<stop stop-color="#F8F9ED"/>
<stop offset="1" stop-color="#F8F9ED" stop-opacity="0.1"/>
</linearGradient>
<linearGradient id="paint45_linear_2122_108" x1="753" y1="0" x2="753" y2="412.944" gradientUnits="userSpaceOnUse">
<stop stop-color="#F8F9ED"/>
<stop offset="1" stop-color="#F8F9ED" stop-opacity="0.1"/>
</linearGradient>
<linearGradient id="paint46_linear_2122_108" x1="753" y1="0" x2="753" y2="412.944" gradientUnits="userSpaceOnUse">
<stop stop-color="#F8F9ED"/>
<stop offset="1" stop-color="#F8F9ED" stop-opacity="0.1"/>
</linearGradient>
<linearGradient id="paint47_linear_2122_108" x1="753" y1="0" x2="753" y2="412.944" gradientUnits="userSpaceOnUse">
<stop stop-color="#F8F9ED"/>
<stop offset="1" stop-color="#F8F9ED" stop-opacity="0.1"/>
</linearGradient>
<linearGradient id="paint48_linear_2122_108" x1="753" y1="0" x2="753" y2="412.944" gradientUnits="userSpaceOnUse">
<stop stop-color="#F8F9ED"/>
<stop offset="1" stop-color="#F8F9ED" stop-opacity="0.1"/>
</linearGradient>
<linearGradient id="paint49_linear_2122_108" x1="753" y1="0" x2="753" y2="412.944" gradientUnits="userSpaceOnUse">
<stop stop-color="#F8F9ED"/>
<stop offset="1" stop-color="#F8F9ED" stop-opacity="0.1"/>
</linearGradient>
<linearGradient id="paint50_linear_2122_108" x1="753" y1="0" x2="753" y2="412.944" gradientUnits="userSpaceOnUse">
<stop stop-color="#F8F9ED"/>
<stop offset="1" stop-color="#F8F9ED" stop-opacity="0.1"/>
</linearGradient>
<linearGradient id="paint51_linear_2122_108" x1="753" y1="0" x2="753" y2="412.944" gradientUnits="userSpaceOnUse">
<stop stop-color="#F8F9ED"/>
<stop offset="1" stop-color="#F8F9ED" stop-opacity="0.1"/>
</linearGradient>
<linearGradient id="paint52_linear_2122_108" x1="753" y1="0" x2="753" y2="412.944" gradientUnits="userSpaceOnUse">
<stop stop-color="#F8F9ED"/>
<stop offset="1" stop-color="#F8F9ED" stop-opacity="0.1"/>
</linearGradient>
<linearGradient id="paint53_linear_2122_108" x1="753" y1="0" x2="753" y2="412.944" gradientUnits="userSpaceOnUse">
<stop stop-color="#F8F9ED"/>
<stop offset="1" stop-color="#F8F9ED" stop-opacity="0.1"/>
</linearGradient>
<linearGradient id="paint54_linear_2122_108" x1="753" y1="0" x2="753" y2="412.944" gradientUnits="userSpaceOnUse">
<stop stop-color="#F8F9ED"/>
<stop offset="1" stop-color="#F8F9ED" stop-opacity="0.1"/>
</linearGradient>
<linearGradient id="paint55_linear_2122_108" x1="753" y1="0" x2="753" y2="412.944" gradientUnits="userSpaceOnUse">
<stop stop-color="#F8F9ED"/>
<stop offset="1" stop-color="#F8F9ED" stop-opacity="0.1"/>
</linearGradient>
<linearGradient id="paint56_linear_2122_108" x1="753" y1="0" x2="753" y2="412.944" gradientUnits="userSpaceOnUse">
<stop stop-color="#F8F9ED"/>
<stop offset="1" stop-color="#F8F9ED" stop-opacity="0.1"/>
</linearGradient>
<linearGradient id="paint57_linear_2122_108" x1="753" y1="0" x2="753" y2="412.944" gradientUnits="userSpaceOnUse">
<stop stop-color="#F8F9ED"/>
<stop offset="1" stop-color="#F8F9ED" stop-opacity="0.1"/>
</linearGradient>
<linearGradient id="paint58_linear_2122_108" x1="753" y1="0" x2="753" y2="412.944" gradientUnits="userSpaceOnUse">
<stop stop-color="#F8F9ED"/>
<stop offset="1" stop-color="#F8F9ED" stop-opacity="0.1"/>
</linearGradient>
<linearGradient id="paint59_linear_2122_108" x1="753" y1="0" x2="753" y2="412.944" gradientUnits="userSpaceOnUse">
<stop stop-color="#F8F9ED"/>
<stop offset="1" stop-color="#F8F9ED" stop-opacity="0.1"/>
</linearGradient>
<linearGradient id="paint60_linear_2122_108" x1="753" y1="0" x2="753" y2="412.944" gradientUnits="userSpaceOnUse">
<stop stop-color="#F8F9ED"/>
<stop offset="1" stop-color="#F8F9ED" stop-opacity="0.1"/>
</linearGradient>
<linearGradient id="paint61_linear_2122_108" x1="753" y1="0" x2="753" y2="412.944" gradientUnits="userSpaceOnUse">
<stop stop-color="#F8F9ED"/>
<stop offset="1" stop-color="#F8F9ED" stop-opacity="0.1"/>
</linearGradient>
<linearGradient id="paint62_linear_2122_108" x1="753" y1="0" x2="753" y2="412.944" gradientUnits="userSpaceOnUse">
<stop stop-color="#F8F9ED"/>
<stop offset="1" stop-color="#F8F9ED" stop-opacity="0.1"/>
</linearGradient>
<linearGradient id="paint63_linear_2122_108" x1="753" y1="0" x2="753" y2="412.944" gradientUnits="userSpaceOnUse">
<stop stop-color="#F8F9ED"/>
<stop offset="1" stop-color="#F8F9ED" stop-opacity="0.1"/>
</linearGradient>
<linearGradient id="paint64_linear_2122_108" x1="753" y1="0" x2="753" y2="412.944" gradientUnits="userSpaceOnUse">
<stop stop-color="#F8F9ED"/>
<stop offset="1" stop-color="#F8F9ED" stop-opacity="0.1"/>
</linearGradient>
<linearGradient id="paint65_linear_2122_108" x1="753" y1="0" x2="753" y2="412.944" gradientUnits="userSpaceOnUse">
<stop stop-color="#F8F9ED"/>
<stop offset="1" stop-color="#F8F9ED" stop-opacity="0.1"/>
</linearGradient>
<linearGradient id="paint66_linear_2122_108" x1="753" y1="0" x2="753" y2="412.944" gradientUnits="userSpaceOnUse">
<stop stop-color="#F8F9ED"/>
<stop offset="1" stop-color="#F8F9ED" stop-opacity="0.1"/>
</linearGradient>
<linearGradient id="paint67_linear_2122_108" x1="753" y1="0" x2="753" y2="412.944" gradientUnits="userSpaceOnUse">
<stop stop-color="#F8F9ED"/>
<stop offset="1" stop-color="#F8F9ED" stop-opacity="0.1"/>
</linearGradient>
<linearGradient id="paint68_linear_2122_108" x1="753" y1="0" x2="753" y2="412.944" gradientUnits="userSpaceOnUse">
<stop stop-color="#F8F9ED"/>
<stop offset="1" stop-color="#F8F9ED" stop-opacity="0.1"/>
</linearGradient>
<linearGradient id="paint69_linear_2122_108" x1="753" y1="0" x2="753" y2="412.944" gradientUnits="userSpaceOnUse">
<stop stop-color="#F8F9ED"/>
<stop offset="1" stop-color="#F8F9ED" stop-opacity="0.1"/>
</linearGradient>
<linearGradient id="paint70_linear_2122_108" x1="753" y1="0" x2="753" y2="412.944" gradientUnits="userSpaceOnUse">
<stop stop-color="#F8F9ED"/>
<stop offset="1" stop-color="#F8F9ED" stop-opacity="0.1"/>
</linearGradient>
<linearGradient id="paint71_linear_2122_108" x1="753" y1="0" x2="753" y2="412.944" gradientUnits="userSpaceOnUse">
<stop stop-color="#F8F9ED"/>
<stop offset="1" stop-color="#F8F9ED" stop-opacity="0.1"/>
</linearGradient>
<linearGradient id="paint72_linear_2122_108" x1="753" y1="0" x2="753" y2="412.944" gradientUnits="userSpaceOnUse">
<stop stop-color="#F8F9ED"/>
<stop offset="1" stop-color="#F8F9ED" stop-opacity="0.1"/>
</linearGradient>
<linearGradient id="paint73_linear_2122_108" x1="753" y1="0" x2="753" y2="412.944" gradientUnits="userSpaceOnUse">
<stop stop-color="#F8F9ED"/>
<stop offset="1" stop-color="#F8F9ED" stop-opacity="0.1"/>
</linearGradient>
<linearGradient id="paint74_linear_2122_108" x1="753" y1="0" x2="753" y2="412.944" gradientUnits="userSpaceOnUse">
<stop stop-color="#F8F9ED"/>
<stop offset="1" stop-color="#F8F9ED" stop-opacity="0.1"/>
</linearGradient>
<linearGradient id="paint75_linear_2122_108" x1="753" y1="0" x2="753" y2="412.944" gradientUnits="userSpaceOnUse">
<stop stop-color="#F8F9ED"/>
<stop offset="1" stop-color="#F8F9ED" stop-opacity="0.1"/>
</linearGradient>
<linearGradient id="paint76_linear_2122_108" x1="753" y1="0" x2="753" y2="412.944" gradientUnits="userSpaceOnUse">
<stop stop-color="#F8F9ED"/>
<stop offset="1" stop-color="#F8F9ED" stop-opacity="0.1"/>
</linearGradient>
<linearGradient id="paint77_linear_2122_108" x1="753" y1="0" x2="753" y2="412.944" gradientUnits="userSpaceOnUse">
<stop stop-color="#F8F9ED"/>
<stop offset="1" stop-color="#F8F9ED" stop-opacity="0.1"/>
</linearGradient>
<linearGradient id="paint78_linear_2122_108" x1="753" y1="0" x2="753" y2="412.944" gradientUnits="userSpaceOnUse">
<stop stop-color="#F8F9ED"/>
<stop offset="1" stop-color="#F8F9ED" stop-opacity="0.1"/>
</linearGradient>
<linearGradient id="paint79_linear_2122_108" x1="753" y1="0" x2="753" y2="412.944" gradientUnits="userSpaceOnUse">
<stop stop-color="#F8F9ED"/>
<stop offset="1" stop-color="#F8F9ED" stop-opacity="0.1"/>
</linearGradient>
<linearGradient id="paint80_linear_2122_108" x1="753" y1="0" x2="753" y2="412.944" gradientUnits="userSpaceOnUse">
<stop stop-color="#F8F9ED"/>
<stop offset="1" stop-color="#F8F9ED" stop-opacity="0.1"/>
</linearGradient>
<linearGradient id="paint81_linear_2122_108" x1="753" y1="0" x2="753" y2="412.944" gradientUnits="userSpaceOnUse">
<stop stop-color="#F8F9ED"/>
<stop offset="1" stop-color="#F8F9ED" stop-opacity="0.1"/>
</linearGradient>
<linearGradient id="paint82_linear_2122_108" x1="753" y1="0" x2="753" y2="412.944" gradientUnits="userSpaceOnUse">
<stop stop-color="#F8F9ED"/>
<stop offset="1" stop-color="#F8F9ED" stop-opacity="0.1"/>
</linearGradient>
<linearGradient id="paint83_linear_2122_108" x1="753" y1="0" x2="753" y2="412.944" gradientUnits="userSpaceOnUse">
<stop stop-color="#F8F9ED"/>
<stop offset="1" stop-color="#F8F9ED" stop-opacity="0.1"/>
</linearGradient>
<linearGradient id="paint84_linear_2122_108" x1="753" y1="0" x2="753" y2="412.944" gradientUnits="userSpaceOnUse">
<stop stop-color="#F8F9ED"/>
<stop offset="1" stop-color="#F8F9ED" stop-opacity="0.1"/>
</linearGradient>
<linearGradient id="paint85_linear_2122_108" x1="753" y1="0" x2="753" y2="412.944" gradientUnits="userSpaceOnUse">
<stop stop-color="#F8F9ED"/>
<stop offset="1" stop-color="#F8F9ED" stop-opacity="0.1"/>
</linearGradient>
<linearGradient id="paint86_linear_2122_108" x1="753" y1="0" x2="753" y2="412.944" gradientUnits="userSpaceOnUse">
<stop stop-color="#F8F9ED"/>
<stop offset="1" stop-color="#F8F9ED" stop-opacity="0.1"/>
</linearGradient>
<linearGradient id="paint87_linear_2122_108" x1="753" y1="0" x2="753" y2="412.944" gradientUnits="userSpaceOnUse">
<stop stop-color="#F8F9ED"/>
<stop offset="1" stop-color="#F8F9ED" stop-opacity="0.1"/>
</linearGradient>
<linearGradient id="paint88_linear_2122_108" x1="753" y1="0" x2="753" y2="412.944" gradientUnits="userSpaceOnUse">
<stop stop-color="#F8F9ED"/>
<stop offset="1" stop-color="#F8F9ED" stop-opacity="0.1"/>
</linearGradient>
<linearGradient id="paint89_linear_2122_108" x1="753" y1="0" x2="753" y2="412.944" gradientUnits="userSpaceOnUse">
<stop stop-color="#F8F9ED"/>
<stop offset="1" stop-color="#F8F9ED" stop-opacity="0.1"/>
</linearGradient>
<linearGradient id="paint90_linear_2122_108" x1="753" y1="0" x2="753" y2="412.944" gradientUnits="userSpaceOnUse">
<stop stop-color="#F8F9ED"/>
<stop offset="1" stop-color="#F8F9ED" stop-opacity="0.1"/>
</linearGradient>
<linearGradient id="paint91_linear_2122_108" x1="753" y1="0" x2="753" y2="412.944" gradientUnits="userSpaceOnUse">
<stop stop-color="#F8F9ED"/>
<stop offset="1" stop-color="#F8F9ED" stop-opacity="0.1"/>
</linearGradient>
</defs>
</svg>
