<svg width="51" height="51" viewBox="0 0 51 51" fill="none" xmlns="http://www.w3.org/2000/svg">
<rect width="51" height="51" rx="16" fill="#70A773"/>
<path d="M24.5 37C24.5 37.8284 25.1716 38.5 26 38.5C26.8284 38.5 27.5 37.8284 27.5 37H24.5ZM27.0607 12.9393C26.4749 12.3536 25.5251 12.3536 24.9393 12.9393L15.3934 22.4853C14.8076 23.0711 14.8076 24.0208 15.3934 24.6066C15.9792 25.1924 16.9289 25.1924 17.5147 24.6066L26 16.1213L34.4853 24.6066C35.0711 25.1924 36.0208 25.1924 36.6066 24.6066C37.1924 24.0208 37.1924 23.0711 36.6066 22.4853L27.0607 12.9393ZM27.5 37L27.5 14H24.5L24.5 37H27.5Z" fill="white"/>
</svg>
